<?xml version="1.0" encoding="UTF-8"?>
<svg version="1.1" xmlns="http://www.w3.org/2000/svg" width="658" height="494">
<path d="M0 0 C0.33 0.99 0.66 1.98 1 3 C-1.10078511 6.07614963 -2.88621595 7.92414397 -6 10 C-5.37351562 10.31453125 -4.74703125 10.6290625 -4.1015625 10.953125 C-2.87566406 11.59507813 -2.87566406 11.59507813 -1.625 12.25 C-0.81289063 12.66765625 -0.00078125 13.0853125 0.8359375 13.515625 C3.35468078 15.24328284 3.93141816 16.1647723 5 19 C5.16357422 21.94506836 5.16357422 21.94506836 5.0546875 25.33984375 C5.03019531 26.56767578 5.00570312 27.79550781 4.98046875 29.06054688 C4.91025633 31.64150343 4.83215311 34.22225761 4.74609375 36.80273438 C4.71322266 38.64641602 4.71322266 38.64641602 4.6796875 40.52734375 C4.64601074 41.64874756 4.61233398 42.77015137 4.57763672 43.92553711 C5.09448267 47.68775736 6.46401165 49.24349092 9 52 C11.15342975 56.43300182 11.25970093 60.12813911 9.8125 64.8125 C8.67914557 67.96691012 7.36455908 69.67368177 5 72 C4.67 72.99 4.34 73.98 4 75 C5.155 75.350625 6.31 75.70125 7.5 76.0625 C26.56219706 82.47622827 43.67847331 92.02857835 59 105 C59.91652344 105.763125 60.83304687 106.52625 61.77734375 107.3125 C67.94731584 112.63635882 73.00177779 118.5820493 78 125 C78.74507813 125.89203125 79.49015625 126.7840625 80.2578125 127.703125 C82 130 82 130 82 132 C82.66 131.67 83.32 131.34 84 131 C86.48099734 130.91350549 88.93344928 130.88434946 91.4140625 130.90234375 C92.14370209 130.9037587 92.87334167 130.90517365 93.62509155 130.90663147 C95.95843585 130.91223469 98.29168464 130.92478765 100.625 130.9375 C102.20572778 130.94251459 103.78645707 130.94707757 105.3671875 130.95117188 C109.24482854 130.96220516 113.12239807 130.97947189 117 131 C118.38256816 134.7554226 117.59000073 137.21967554 116.41796875 140.97265625 C116.06283203 142.11927734 115.70769531 143.26589844 115.34179688 144.44726562 C114.96087891 145.64029297 114.57996094 146.83332031 114.1875 148.0625 C113.81818359 149.25939453 113.44886719 150.45628906 113.06835938 151.68945312 C110.28305895 160.57541158 110.28305895 160.57541158 108 164 C106.0546875 164.29296875 106.0546875 164.29296875 103.875 164.1875 C102.59625 164.125625 101.3175 164.06375 100 164 C100.33773438 165.06476563 100.67546875 166.12953125 101.0234375 167.2265625 C101.47450735 168.69253952 101.92499617 170.1586954 102.375 171.625 C102.59671875 172.31851563 102.8184375 173.01203125 103.046875 173.7265625 C105.16341896 180.6987073 106.08850691 187.7841205 107 195 C108.16047852 194.97381592 109.32095703 194.94763184 110.51660156 194.9206543 C114.82516168 194.8301039 119.13363787 194.7727335 123.44287109 194.7253418 C125.30727281 194.70020853 127.1715761 194.66609617 129.03564453 194.62280273 C131.71671831 194.56209648 134.39648902 194.53377942 137.078125 194.51171875 C138.32677338 194.47300911 138.32677338 194.47300911 139.60064697 194.43351746 C143.53473347 194.43161391 145.40589395 194.55375616 148.62011719 196.96801758 C151.73660894 203.81580794 148.47834218 211.51355275 146.3046875 218.328125 C146.03633087 219.19183716 145.76797424 220.05554932 145.4914856 220.94543457 C144.62791582 223.71640044 143.75225446 226.48333896 142.875 229.25 C142.27701108 231.15126259 141.67935554 233.05263006 141.08203125 234.95410156 C139.9168794 238.65614263 138.74571172 242.35619834 137.56933594 246.0546875 C136.631156 249.00505524 135.69883862 251.95692291 134.78222656 254.9140625 C133.86786533 257.86372734 132.93815321 260.80783655 132 263.75 C131.75878418 264.53793945 131.51756836 265.32587891 131.26904297 266.13769531 C129.38412101 271.89797512 127.0072329 276.46277066 121.37890625 279.33984375 C116.57149309 280.27909557 111.82600342 280.43020387 106.9375 280.5625 C104.98816778 280.62273578 103.0389385 280.68642232 101.08984375 280.75390625 C100.23253662 280.77783447 99.37522949 280.8017627 98.49194336 280.82641602 C95.87301197 281.00884574 93.52418426 281.26412261 91 282 C89.29181623 284.36378951 87.9006898 286.58978961 86.5 289.125 C82.90721625 295.24662788 79.00468406 300.73355832 74.3125 306.0625 C73.79042969 306.65627441 73.26835937 307.25004883 72.73046875 307.86181641 C71.17618448 309.59720604 69.59763918 311.30447163 68 313 C67.45529053 313.57838623 66.91058105 314.15677246 66.34936523 314.75268555 C62.03956731 319.19918516 57.3876806 322.97816467 52.4375 326.6875 C51.70853516 327.24244141 50.97957031 327.79738281 50.22851562 328.36914062 C46.23722774 331.39044855 42.19845795 334.27398702 38 337 C58.95347486 326.04812709 75.58895807 312.83306028 90 294 C91 293 91 293 93.375 292.625 C94.24125 292.74875 95.1075 292.8725 96 293 C97.8125 295.5 97.8125 295.5 99 298 C90.35796452 315.67689075 71.75204419 330.19902997 55 340 C54.39639648 340.35336426 53.79279297 340.70672852 53.17089844 341.07080078 C29.87505433 354.504035 4.88879 360.22787714 -21.875 360.25 C-22.60921173 360.25067474 -23.34342346 360.25134949 -24.09988403 360.25204468 C-35.63985116 360.23522371 -46.73535357 359.64602262 -58 357 C-58.7204248 356.83902832 -59.44084961 356.67805664 -60.18310547 356.51220703 C-98.22254307 347.79954376 -133.17086261 324.26022423 -154.37890625 291.3671875 C-174.85477161 258.67192335 -182.61319079 220.02843014 -174.2578125 182.046875 C-168.64944078 158.77790961 -157.9990213 135.67814092 -141.2265625 118.33203125 C-138.95206113 116.01909249 -138.95206113 116.01909249 -136.92578125 113.3984375 C-134.00924241 109.76607473 -130.58622841 106.95505221 -127 104 C-126.06027344 103.22269531 -125.12054688 102.44539063 -124.15234375 101.64453125 C-114.2427237 93.64542581 -103.39830634 87.61987592 -92 82 C-93.59541169 80.70463408 -93.59541169 80.70463408 -96 80 C-98.57161934 80.62536413 -100.75567311 81.32855451 -103.1875 82.3125 C-103.88875 82.58884277 -104.59 82.86518555 -105.3125 83.14990234 C-131.31598322 93.70948734 -154.14138854 110.94175946 -169 135 C-169.93392578 136.45986328 -169.93392578 136.45986328 -170.88671875 137.94921875 C-184.37548504 159.86480649 -188.47720377 184.11857435 -187.75317383 209.45068359 C-187.69883967 211.45369204 -187.67128511 213.45737087 -187.64453125 215.4609375 C-187.61721924 216.64478027 -187.58990723 217.82862305 -187.56176758 219.04833984 C-188 222 -188 222 -189.8894043 223.91650391 C-192 225 -192 225 -194.125 224.875 C-196 224 -196 224 -198 221 C-203.47649728 188.24633355 -194.04372616 151.64248833 -175.01171875 124.68359375 C-156.69109375 100.24423574 -130.48683418 77.10818537 -99.765625 70.28125 C-96.77830518 69.1628189 -96.77830518 69.1628189 -94.9140625 66.21484375 C-92.84869435 60.37103123 -95.65366804 54.211765 -97.375 48.5625 C-102.45465536 31.58430409 -102.45465536 31.58430409 -98.87890625 24.90625 C-97.62487154 23.56662836 -96.31345289 22.28141746 -95 21 C-94.34 21 -93.68 21 -93 21 C-93.28875 20.32453125 -93.5775 19.6490625 -93.875 18.953125 C-94.24625 18.06109375 -94.6175 17.1690625 -95 16.25 C-95.556875 14.92742187 -95.556875 14.92742187 -96.125 13.578125 C-97 11 -97 11 -97 7 C-93.25 5.875 -93.25 5.875 -91 7 C-90.01 8.485 -90.01 8.485 -89 10 C-88.62230469 9.49210937 -88.24460937 8.98421875 -87.85546875 8.4609375 C-83.05587317 2.45863296 -77.92131791 -0.77966458 -71 -4 C-69.7934375 -4.57041016 -69.7934375 -4.57041016 -68.5625 -5.15234375 C-46.58085202 -14.73316071 -19.96560543 -13.92423291 0 0 Z " fill="#FDFDFD" transform="translate(359,69)"/>
<path d="M0 0 C0.33 0.99 0.66 1.98 1 3 C-1.10078511 6.07614963 -2.88621595 7.92414397 -6 10 C-5.37351562 10.31453125 -4.74703125 10.6290625 -4.1015625 10.953125 C-2.87566406 11.59507813 -2.87566406 11.59507813 -1.625 12.25 C-0.81289063 12.66765625 -0.00078125 13.0853125 0.8359375 13.515625 C3.35468078 15.24328284 3.93141816 16.1647723 5 19 C5.16357422 21.94506836 5.16357422 21.94506836 5.0546875 25.33984375 C5.03019531 26.56767578 5.00570312 27.79550781 4.98046875 29.06054688 C4.91025633 31.64150343 4.83215311 34.22225761 4.74609375 36.80273438 C4.71322266 38.64641602 4.71322266 38.64641602 4.6796875 40.52734375 C4.64601074 41.64874756 4.61233398 42.77015137 4.57763672 43.92553711 C5.09448267 47.68775736 6.46401165 49.24349092 9 52 C11.15342975 56.43300182 11.25970093 60.12813911 9.8125 64.8125 C8.67914557 67.96691012 7.36455908 69.67368177 5 72 C4.67 72.99 4.34 73.98 4 75 C5.155 75.350625 6.31 75.70125 7.5 76.0625 C26.56219706 82.47622827 43.67847331 92.02857835 59 105 C59.91652344 105.763125 60.83304687 106.52625 61.77734375 107.3125 C67.94731584 112.63635882 73.00177779 118.5820493 78 125 C78.74507813 125.89203125 79.49015625 126.7840625 80.2578125 127.703125 C82 130 82 130 82 132 C82.66 131.67 83.32 131.34 84 131 C86.48099734 130.91350549 88.93344928 130.88434946 91.4140625 130.90234375 C92.14370209 130.9037587 92.87334167 130.90517365 93.62509155 130.90663147 C95.95843585 130.91223469 98.29168464 130.92478765 100.625 130.9375 C102.20572778 130.94251459 103.78645707 130.94707757 105.3671875 130.95117188 C109.24482854 130.96220516 113.12239807 130.97947189 117 131 C118.38256816 134.7554226 117.59000073 137.21967554 116.41796875 140.97265625 C116.06283203 142.11927734 115.70769531 143.26589844 115.34179688 144.44726562 C114.96087891 145.64029297 114.57996094 146.83332031 114.1875 148.0625 C113.81818359 149.25939453 113.44886719 150.45628906 113.06835938 151.68945312 C110.28305895 160.57541158 110.28305895 160.57541158 108 164 C106.0546875 164.29296875 106.0546875 164.29296875 103.875 164.1875 C102.59625 164.125625 101.3175 164.06375 100 164 C100.34933594 165.16917969 100.69867188 166.33835938 101.05859375 167.54296875 C101.5183452 169.09111138 101.97797417 170.63929039 102.4375 172.1875 C102.78264648 173.34088867 102.78264648 173.34088867 103.13476562 174.51757812 C105.41857919 182.22958624 106 187.56648433 106 196 C88.51 196 71.02 196 53 196 C50.36 188.74 47.72 181.48 45 174 C37.79853708 160.21788992 28.91548207 149.74385024 14 144 C12.3401333 143.63430691 10.6740706 143.2938988 9 143 C9.32613281 143.67804688 9.65226563 144.35609375 9.98828125 145.0546875 C12.24134903 149.85325664 14.15067103 154.31763132 15.3125 159.5 C16.19133778 162.93630665 16.19133778 162.93630665 18.8203125 165.078125 C20.22180606 165.52287941 21.63542084 165.93122806 23.05859375 166.30078125 C26.40049367 167.50440315 27.50128572 169.94012501 29 173 C29 174.32 29 175.64 29 177 C27.02 177.33 25.04 177.66 23 178 C22.34 176.02 21.68 174.04 21 172 C19.52031676 172.14049518 18.04125484 172.28754826 16.5625 172.4375 C15.32693359 172.55931641 15.32693359 172.55931641 14.06640625 172.68359375 C12.01337975 172.78930815 12.01337975 172.78930815 11 174 C10.95907063 176.33297433 10.95758277 178.66705225 11 181 C8.525 181.99 8.525 181.99 6 183 C4 181 4 181 3.5625 177.25 C3.60955653 173.49892202 3.90111174 173.10830619 6.625 170.125 C9.21815796 167.35658502 9.21815796 167.35658502 9.02734375 164.7578125 C8.53178317 162.08428398 7.8415475 159.58556902 7 157 C6.72542969 156.13503906 6.45085937 155.27007812 6.16796875 154.37890625 C2.90321901 145.25149954 -1.63924556 140.57120538 -10 136 C-10.04487549 136.57741943 -10.08975098 137.15483887 -10.13598633 137.74975586 C-10.93178128 147.75615892 -11.76740544 157.73059638 -13.5 167.625 C-13.67752808 168.6612854 -13.67752808 168.6612854 -13.85864258 169.71850586 C-15.12245518 176.54652118 -15.12245518 176.54652118 -17 179 C-21.33671106 181.07126498 -25.2423169 181.58627938 -30 181 C-34.91248444 177.75522245 -38.3576103 173.57659757 -42 169 C-42.8615343 167.96577509 -43.72349742 166.9319072 -44.5859375 165.8984375 C-49.48449797 159.794553 -53.84578608 153.36209189 -58.125 146.8125 C-58.61105713 146.06911377 -59.09711426 145.32572754 -59.59790039 144.55981445 C-60.04254639 143.865896 -60.48719238 143.17197754 -60.9453125 142.45703125 C-61.34250488 141.83803955 -61.73969727 141.21904785 -62.14892578 140.58129883 C-63 139 -63 139 -63 137 C-66.48117378 135.40860627 -69.16931801 134.4253977 -73 135 C-76.81474074 137.45233333 -78.99437267 139.96033702 -81 144 C-82.76578796 157.17182373 -78.48330001 165.12053297 -71.390625 175.71484375 C-70 178 -70 178 -70 180 C-68.783125 179.9175 -67.56625 179.835 -66.3125 179.75 C-62.9273826 179.73799604 -62.06131766 179.96086107 -59.0625 181.875 C-55.70358835 185.33569686 -55.53340279 188.05382909 -55.59375 192.73828125 C-56 195 -56 195 -58.5625 198 C-62.35557486 200.20687992 -64.61177459 201.07836117 -69 201 C-72.16483536 199.38772538 -74.27108725 197.99397194 -76.375 195.125 C-77.42324087 191.56098103 -77.46911664 188.2810493 -76.1875 184.78125 C-75.89317977 180.41549995 -78.3176772 177.8708353 -80.8125 174.4375 C-81.73753357 173.12500438 -82.66076868 171.81123903 -83.58203125 170.49609375 C-84.20428589 169.63262329 -84.20428589 169.63262329 -84.83911133 168.75170898 C-88.76747126 162.82405756 -89.1340343 157.13536152 -89.0625 150.125 C-89.05347656 148.97257813 -89.04445313 147.82015625 -89.03515625 146.6328125 C-89.02355469 145.76398438 -89.01195312 144.89515625 -89 144 C-97.92603234 142.96208926 -106.82768337 147.05114717 -113.875 152.3125 C-115.27728518 153.5104449 -116.65409411 154.73904281 -118 156 C-118.60199219 156.56074219 -119.20398438 157.12148437 -119.82421875 157.69921875 C-125.70192781 163.78826117 -129.34781864 171.44939368 -133 179 C-133.39405029 179.81428467 -133.78810059 180.62856934 -134.1940918 181.4675293 C-137.51859585 188.54519471 -140.12790279 195.76171445 -142.5625 203.1875 C-142.95453613 204.37641846 -143.34657227 205.56533691 -143.75048828 206.7902832 C-146.57467672 215.46187643 -149.09278757 224.08041058 -151 233 C-151.14663086 233.64936523 -151.29326172 234.29873047 -151.44433594 234.96777344 C-154.79455963 249.90328679 -156.46717235 263.69294406 -148 277.1875 C-139.17092305 286.68952489 -125.36827722 290.29925913 -113 292 C-112.13906691 296.03715032 -111.28478715 300.07564663 -110.43652344 304.11547852 C-110.14731334 305.48825597 -109.85631989 306.86065902 -109.56347656 308.23266602 C-109.14173218 310.21013074 -108.72651837 312.1888739 -108.3125 314.16796875 C-108.06113281 315.35672607 -107.80976563 316.5454834 -107.55078125 317.77026367 C-107.06788448 320.60193094 -106.88676951 323.13857111 -107 326 C-106.33097656 326.24105469 -105.66195312 326.48210937 -104.97265625 326.73046875 C-101.27597516 328.30920903 -97.90710217 330.29294883 -94.4375 332.3125 C-60.64342347 351.55331481 -20.43925519 355.17404575 16.98779297 345.20410156 C26.7577122 342.46381578 35.53947447 339.67020299 44 334 C45.29411941 333.20688248 46.59232085 332.42038683 47.89453125 331.640625 C64.49080212 321.56080956 78.12344449 309.43317106 90 294 C91 293 91 293 93.375 292.625 C94.24125 292.74875 95.1075 292.8725 96 293 C97.8125 295.5 97.8125 295.5 99 298 C90.35796452 315.67689075 71.75204419 330.19902997 55 340 C54.39639648 340.35336426 53.79279297 340.70672852 53.17089844 341.07080078 C29.87505433 354.504035 4.88879 360.22787714 -21.875 360.25 C-22.60921173 360.25067474 -23.34342346 360.25134949 -24.09988403 360.25204468 C-35.63985116 360.23522371 -46.73535357 359.64602262 -58 357 C-58.7204248 356.83902832 -59.44084961 356.67805664 -60.18310547 356.51220703 C-98.22254307 347.79954376 -133.17086261 324.26022423 -154.37890625 291.3671875 C-174.85477161 258.67192335 -182.61319079 220.02843014 -174.2578125 182.046875 C-168.64944078 158.77790961 -157.9990213 135.67814092 -141.2265625 118.33203125 C-138.95206113 116.01909249 -138.95206113 116.01909249 -136.92578125 113.3984375 C-134.00924241 109.76607473 -130.58622841 106.95505221 -127 104 C-126.06027344 103.22269531 -125.12054688 102.44539063 -124.15234375 101.64453125 C-114.2427237 93.64542581 -103.39830634 87.61987592 -92 82 C-93.59541169 80.70463408 -93.59541169 80.70463408 -96 80 C-98.57161934 80.62536413 -100.75567311 81.32855451 -103.1875 82.3125 C-103.88875 82.58884277 -104.59 82.86518555 -105.3125 83.14990234 C-131.31598322 93.70948734 -154.14138854 110.94175946 -169 135 C-169.93392578 136.45986328 -169.93392578 136.45986328 -170.88671875 137.94921875 C-184.37548504 159.86480649 -188.47720377 184.11857435 -187.75317383 209.45068359 C-187.69883967 211.45369204 -187.67128511 213.45737087 -187.64453125 215.4609375 C-187.61721924 216.64478027 -187.58990723 217.82862305 -187.56176758 219.04833984 C-188 222 -188 222 -189.8894043 223.91650391 C-192 225 -192 225 -194.125 224.875 C-196 224 -196 224 -198 221 C-203.47649728 188.24633355 -194.04372616 151.64248833 -175.01171875 124.68359375 C-156.69109375 100.24423574 -130.48683418 77.10818537 -99.765625 70.28125 C-96.77830518 69.1628189 -96.77830518 69.1628189 -94.9140625 66.21484375 C-92.84869435 60.37103123 -95.65366804 54.211765 -97.375 48.5625 C-102.45465536 31.58430409 -102.45465536 31.58430409 -98.87890625 24.90625 C-97.62487154 23.56662836 -96.31345289 22.28141746 -95 21 C-94.34 21 -93.68 21 -93 21 C-93.28875 20.32453125 -93.5775 19.6490625 -93.875 18.953125 C-94.24625 18.06109375 -94.6175 17.1690625 -95 16.25 C-95.556875 14.92742187 -95.556875 14.92742187 -96.125 13.578125 C-97 11 -97 11 -97 7 C-93.25 5.875 -93.25 5.875 -91 7 C-90.01 8.485 -90.01 8.485 -89 10 C-88.62230469 9.49210937 -88.24460937 8.98421875 -87.85546875 8.4609375 C-83.05587317 2.45863296 -77.92131791 -0.77966458 -71 -4 C-69.7934375 -4.57041016 -69.7934375 -4.57041016 -68.5625 -5.15234375 C-46.58085202 -14.73316071 -19.96560543 -13.92423291 0 0 Z " fill="#FBCFCF" transform="translate(359,69)"/>
<path d="M0 0 C13.02544064 2.45763031 23.95801387 9.92137503 31.5246582 20.74633789 C36.77738795 28.66789107 39.94938217 37.04818704 43 46 C43.38285156 46.91652344 43.76570313 47.83304687 44.16015625 48.77734375 C45 51 45 51 45 54 C62.49 54 79.98 54 98 54 C98.33 52.68 98.66 51.36 99 50 C99 50.99 99 51.98 99 53 C100.16047852 52.97381592 101.32095703 52.94763184 102.51660156 52.9206543 C106.82516168 52.8301039 111.13363787 52.7727335 115.44287109 52.7253418 C117.30727281 52.70020853 119.1715761 52.66609617 121.03564453 52.62280273 C123.71671831 52.56209648 126.39648902 52.53377942 129.078125 52.51171875 C129.91055725 52.48591232 130.7429895 52.4601059 131.60064697 52.43351746 C135.53473347 52.43161391 137.40589395 52.55375616 140.62011719 54.96801758 C143.73660894 61.81580794 140.47834218 69.51355275 138.3046875 76.328125 C138.03633087 77.19183716 137.76797424 78.05554932 137.4914856 78.94543457 C136.62791582 81.71640044 135.75225446 84.48333896 134.875 87.25 C134.27701108 89.15126259 133.67935554 91.05263006 133.08203125 92.95410156 C131.9168794 96.65614263 130.74571172 100.35619834 129.56933594 104.0546875 C128.631156 107.00505524 127.69883862 109.95692291 126.78222656 112.9140625 C125.86786533 115.86372734 124.93815321 118.80783655 124 121.75 C123.63817627 122.93190918 123.63817627 122.93190918 123.26904297 124.13769531 C121.38412101 129.89797512 119.0072329 134.46277066 113.37890625 137.33984375 C108.57149309 138.27909557 103.82600342 138.43020387 98.9375 138.5625 C96.98816778 138.62273578 95.0389385 138.68642232 93.08984375 138.75390625 C92.23253662 138.77783447 91.37522949 138.8017627 90.49194336 138.82641602 C87.87301197 139.00884574 85.52418426 139.26412261 83 140 C81.29181623 142.36378951 79.9006898 144.58978961 78.5 147.125 C74.90721625 153.24662788 71.00468406 158.73355832 66.3125 164.0625 C65.79042969 164.65627441 65.26835937 165.25004883 64.73046875 165.86181641 C58.51653744 172.79979562 52.05574796 178.99809303 44.625 184.625 C43.56925781 185.44484375 43.56925781 185.44484375 42.4921875 186.28125 C29.75085975 196 29.75085975 196 24 196 C23.81824219 194.10314453 23.81824219 194.10314453 23.6328125 192.16796875 C23.46397853 190.50776802 23.29468367 188.84761411 23.125 187.1875 C23.04636719 186.35412109 22.96773438 185.52074219 22.88671875 184.66210938 C22.80292969 183.85966797 22.71914063 183.05722656 22.6328125 182.23046875 C22.55949707 181.49207764 22.48618164 180.75368652 22.41064453 179.99291992 C22.0668422 177.69361347 22.0668422 177.69361347 20 175 C19.01 174.67 18.02 174.34 17 174 C16.57084731 169.78266173 16.14365089 165.56513126 15.71826172 161.34741211 C15.57329117 159.9127874 15.42778733 158.47821648 15.28173828 157.04370117 C15.07183666 154.98109644 14.86385713 152.91830554 14.65625 150.85546875 C14.53056641 149.61434326 14.40488281 148.37321777 14.27539062 147.09448242 C14 144 14 144 14 141 C-3.49 141 -20.98 141 -39 141 C-39 138.69 -39 136.38 -39 134 C-38.0212793 133.97494385 -37.04255859 133.9498877 -36.03417969 133.92407227 C-32.39619296 133.82976017 -28.75838657 133.72959797 -25.12060547 133.62768555 C-23.54740626 133.58442662 -21.97416283 133.54274526 -20.40087891 133.50268555 C-18.13690885 133.44476338 -15.87315949 133.38113286 -13.609375 133.31640625 C-12.55759064 133.29133751 -12.55759064 133.29133751 -11.48455811 133.26576233 C-8.19766179 133.16648978 -5.14857995 132.99187328 -2 132 C-1.72027344 130.86949219 -1.44054687 129.73898437 -1.15234375 128.57421875 C1.37512022 118.39239514 3.94913246 108.22261133 6.5625 98.0625 C6.84295166 96.96317139 7.12340332 95.86384277 7.41235352 94.73120117 C9.13916376 88.0448837 11.05163586 81.44677501 13.14819336 74.86669922 C13.91927435 72.27167688 14.50842528 69.72242656 15 67.0625 C15.81773778 63.04748118 17.5581848 60.30826576 20 57 C21.34583217 52.96250348 20.15189741 49.96272713 19.0625 46 C17 38.3490099 17 38.3490099 17 35 C18.32 35 19.64 35 21 35 C19.40271614 29.33560862 19.40271614 29.33560862 15.625 25.125 C13.06732436 23.94564162 13.06732436 23.94564162 10.5 23.37890625 C7.4486267 21.69588316 6.9299851 20.09482293 5.9296875 16.83398438 C5.74664062 16.16689453 5.56359375 15.49980469 5.375 14.8125 C4.99008015 13.50559309 4.60206512 12.19959375 4.2109375 10.89453125 C4.02112305 10.25338379 3.83130859 9.61223633 3.63574219 8.95166016 C2.63178564 5.86962149 1.32655218 2.95598767 0 0 Z " fill="#DFDFDF" transform="translate(367,211)"/>
<path d="M0 0 C0.94673584 0.00386719 0.94673584 0.00386719 1.91259766 0.0078125 C4.12644079 0.08565292 5.90517562 0.26795827 8 1 C9.75807291 3.58984934 10.77302308 5.52424765 11.875 8.375 C14.4075779 14.24946266 16.85230858 18.26892013 21.5 22.6875 C24.56263072 25.75949657 25.86754991 27.25435506 26.6328125 31.5625 C26.62589553 34.77197527 26.45427128 37.82514853 26 41 C24.948125 41.14695312 24.948125 41.14695312 23.875 41.296875 C13.9797654 42.85645002 7.95067459 45.25408049 1.4453125 53 C-0.07636612 54.93727966 -0.07636612 54.93727966 -0.8828125 57.1875 C-2 59 -2 59 -4.25 59.6875 C-5.61125 59.8421875 -5.61125 59.8421875 -7 60 C-19.51822687 61.91205293 -29.12135838 67.80350827 -37.24609375 77.51171875 C-41.09974675 82.97892802 -44.09215143 88.98824494 -47 95 C-47.39405029 95.81428467 -47.78810059 96.62856934 -48.1940918 97.4675293 C-51.51859585 104.54519471 -54.12790279 111.76171445 -56.5625 119.1875 C-56.95453613 120.37641846 -57.34657227 121.56533691 -57.75048828 122.7902832 C-60.57467672 131.46187643 -63.09278757 140.08041058 -65 149 C-65.14663086 149.64936523 -65.29326172 150.29873047 -65.44433594 150.96777344 C-68.79455963 165.90328679 -70.46717235 179.69294406 -62 193.1875 C-53.17092305 202.68952489 -39.36827722 206.29925913 -27 208 C-26.13906691 212.03715032 -25.28478715 216.07564663 -24.43652344 220.11547852 C-24.14731334 221.48825597 -23.85631989 222.86065902 -23.56347656 224.23266602 C-23.14173218 226.21013074 -22.72651837 228.1888739 -22.3125 230.16796875 C-22.06113281 231.35672607 -21.80976563 232.5454834 -21.55078125 233.77026367 C-21.06788448 236.60193094 -20.88676951 239.13857111 -21 242 C-20.33097656 242.24105469 -19.66195312 242.48210937 -18.97265625 242.73046875 C-15.27597516 244.30920903 -11.90710217 246.29294883 -8.4375 248.3125 C25.35657653 267.55331481 65.56074481 271.17404575 102.98779297 261.20410156 C112.7577122 258.46381578 121.53947447 255.67020299 130 250 C131.29411941 249.20688248 132.59232085 248.42038683 133.89453125 247.640625 C150.49080212 237.56080956 164.12344449 225.43317106 176 210 C177 209 177 209 179.375 208.625 C180.24125 208.74875 181.1075 208.8725 182 209 C183.8125 211.5 183.8125 211.5 185 214 C176.35796452 231.67689075 157.75204419 246.19902997 141 256 C140.39639648 256.35336426 139.79279297 256.70672852 139.17089844 257.07080078 C115.87505433 270.504035 90.88879 276.22787714 64.125 276.25 C63.39078827 276.25067474 62.65657654 276.25134949 61.90011597 276.25204468 C50.36014884 276.23522371 39.26464643 275.64602262 28 273 C27.2795752 272.83902832 26.55915039 272.67805664 25.81689453 272.51220703 C-12.22254307 263.79954376 -47.17086261 240.26022423 -68.37890625 207.3671875 C-88.85477161 174.67192335 -96.61319079 136.02843014 -88.2578125 98.046875 C-82.64944078 74.77790961 -71.9990213 51.67814092 -55.2265625 34.33203125 C-52.95206113 32.01909249 -52.95206113 32.01909249 -50.92578125 29.3984375 C-48.00924241 25.76607473 -44.58622841 22.95505221 -41 20 C-40.06027344 19.22269531 -39.12054688 18.44539063 -38.15234375 17.64453125 C-29.98010359 11.04864263 -21.27487351 5.89595143 -12 1 C-10.89591797 0.37158203 -10.89591797 0.37158203 -9.76953125 -0.26953125 C-6.60701613 -1.57502866 -3.27993352 -0.53057748 0 0 Z " fill="#7D5C91" transform="translate(273,153)"/>
<path d="M0 0 C5.70654506 0.53990965 10.2457854 2.11677846 15.4375 4.5 C16.6116748 5.03403442 16.6116748 5.03403442 17.80957031 5.57885742 C31.46699971 11.89934386 43.51076783 19.2730532 55 29 C55.91652344 29.763125 56.83304687 30.52625 57.77734375 31.3125 C63.94731584 36.63635882 69.00177779 42.5820493 74 49 C74.74507813 49.89203125 75.49015625 50.7840625 76.2578125 51.703125 C78 54 78 54 78 56 C78.66 55.67 79.32 55.34 80 55 C82.48099734 54.91350549 84.93344928 54.88434946 87.4140625 54.90234375 C88.14370209 54.9037587 88.87334167 54.90517365 89.62509155 54.90663147 C91.95843585 54.91223469 94.29168464 54.92478765 96.625 54.9375 C98.20572778 54.94251459 99.78645707 54.94707757 101.3671875 54.95117188 C105.24482854 54.96220516 109.12239807 54.97947189 113 55 C114.38256816 58.7554226 113.59000073 61.21967554 112.41796875 64.97265625 C111.88526367 66.69258789 111.88526367 66.69258789 111.34179688 68.44726562 C110.96087891 69.64029297 110.57996094 70.83332031 110.1875 72.0625 C109.63352539 73.8578418 109.63352539 73.8578418 109.06835938 75.68945312 C106.28305895 84.57541158 106.28305895 84.57541158 104 88 C102.0546875 88.29296875 102.0546875 88.29296875 99.875 88.1875 C98.59625 88.125625 97.3175 88.06375 96 88 C96.52400391 89.75376953 96.52400391 89.75376953 97.05859375 91.54296875 C97.5183452 93.09111138 97.97797417 94.63929039 98.4375 96.1875 C98.66759766 96.95642578 98.89769531 97.72535156 99.13476562 98.51757812 C101.41857919 106.22958624 102 111.56648433 102 120 C84.51 120 67.02 120 49 120 C45.04 109.11 45.04 109.11 41 98 C33.72914151 84.08508117 24.91643344 73.96033219 10 68 C8.824375 67.7525 7.64875 67.505 6.4375 67.25 C2.76889058 65.91596021 2.20509405 65.26604124 -0.0625 62.3125 C-5.84456704 55.09805727 -15.39268511 51.6987928 -24 49 C-24.49681596 45.85349891 -24.78210027 44.02199289 -24 41 C-21.96520674 38.90757643 -19.78287938 37.37357957 -17.38671875 35.7109375 C-8.30917224 29.2036292 -4.80462674 19.45950946 -2.25 9 C-2.02957031 8.12988281 -1.80914062 7.25976562 -1.58203125 6.36328125 C-1.0464524 4.24425189 -0.52204306 2.12240457 0 0 Z " fill="#7B5A90" transform="translate(363,145)"/>
<path d="M0 0 C0.495 1.485 0.495 1.485 1 3 C-1.10078511 6.07614963 -2.88621595 7.92414397 -6 10 C-5.37351562 10.31453125 -4.74703125 10.6290625 -4.1015625 10.953125 C-3.28429687 11.38109375 -2.46703125 11.8090625 -1.625 12.25 C-0.81289063 12.66765625 -0.00078125 13.0853125 0.8359375 13.515625 C3.32235721 15.22111145 3.90203733 16.22841415 5 19 C5.24291992 21.37841797 5.24291992 21.37841797 5.23046875 23.9921875 C5.22853516 24.94480469 5.22660156 25.89742187 5.22460938 26.87890625 C5.21236328 27.86761719 5.20011719 28.85632813 5.1875 29.875 C5.1865332 31.34646484 5.1865332 31.34646484 5.18554688 32.84765625 C5.15626309 37.66971871 5.0039759 42.26123376 4 47 C2.515 46.505 2.515 46.505 1 46 C0.55029015 43.95900914 0.11086019 41.91536643 -0.28515625 39.86328125 C-2.63477965 30.45194817 -7.22557266 21.74018984 -13 14 C-16.59007808 14.97231281 -19.9788704 15.99154816 -23.4375 17.375 C-36.77701312 22.43481532 -52.71987849 26 -67 26 C-67.10489746 27.18758911 -67.10489746 27.18758911 -67.21191406 28.39916992 C-67.5399412 31.99718467 -67.89467098 35.5920832 -68.25 39.1875 C-68.35957031 40.43337891 -68.46914063 41.67925781 -68.58203125 42.96289062 C-68.76572266 44.7659668 -68.76572266 44.7659668 -68.953125 46.60546875 C-69.05786133 47.71043701 -69.16259766 48.81540527 -69.27050781 49.95385742 C-70.13216971 53.55190143 -71.39713969 55.39624195 -74 58 C-77.0234375 58.3828125 -77.0234375 58.3828125 -80.375 58.125 C-85.62852559 57.90043985 -88.66659535 58.02852253 -93 61 C-95.50391682 56.31014552 -96.76188223 51.34868003 -98.1875 46.25 C-98.47302734 45.28578125 -98.75855469 44.3215625 -99.05273438 43.328125 C-100.8447543 36.90999039 -102.19355868 31.09668102 -98.87890625 24.90625 C-97.62487154 23.56662836 -96.31345289 22.28141746 -95 21 C-94.34 21 -93.68 21 -93 21 C-93.28875 20.32453125 -93.5775 19.6490625 -93.875 18.953125 C-94.24625 18.06109375 -94.6175 17.1690625 -95 16.25 C-95.556875 14.92742187 -95.556875 14.92742187 -96.125 13.578125 C-97 11 -97 11 -97 7 C-93.25 5.875 -93.25 5.875 -91 7 C-90.34 7.99 -89.68 8.98 -89 10 C-88.62230469 9.49210937 -88.24460937 8.98421875 -87.85546875 8.4609375 C-83.05587317 2.45863296 -77.92131791 -0.77966458 -71 -4 C-70.195625 -4.38027344 -69.39125 -4.76054688 -68.5625 -5.15234375 C-46.58085202 -14.73316071 -19.96560543 -13.92423291 0 0 Z " fill="#162924" transform="translate(359,69)"/>
<path d="M0 0 C5.70654506 0.53990965 10.2457854 2.11677846 15.4375 4.5 C16.6116748 5.03403442 16.6116748 5.03403442 17.80957031 5.57885742 C31.46699971 11.89934386 43.51076783 19.2730532 55 29 C55.91652344 29.763125 56.83304687 30.52625 57.77734375 31.3125 C63.94731584 36.63635882 69.00177779 42.5820493 74 49 C74.74507813 49.89203125 75.49015625 50.7840625 76.2578125 51.703125 C78 54 78 54 78 56 C78.66 55.67 79.32 55.34 80 55 C82.48099734 54.91350549 84.93344928 54.88434946 87.4140625 54.90234375 C88.14370209 54.9037587 88.87334167 54.90517365 89.62509155 54.90663147 C91.95843585 54.91223469 94.29168464 54.92478765 96.625 54.9375 C98.20572778 54.94251459 99.78645707 54.94707757 101.3671875 54.95117188 C105.24482854 54.96220516 109.12239807 54.97947189 113 55 C114.38256816 58.7554226 113.59000073 61.21967554 112.41796875 64.97265625 C111.88526367 66.69258789 111.88526367 66.69258789 111.34179688 68.44726562 C110.96087891 69.64029297 110.57996094 70.83332031 110.1875 72.0625 C109.81818359 73.25939453 109.44886719 74.45628906 109.06835938 75.68945312 C106.28305895 84.57541158 106.28305895 84.57541158 104 88 C102.0546875 88.29296875 102.0546875 88.29296875 99.875 88.1875 C98.59625 88.125625 97.3175 88.06375 96 88 C96.52400391 89.75376953 96.52400391 89.75376953 97.05859375 91.54296875 C97.5183452 93.09111138 97.97797417 94.63929039 98.4375 96.1875 C98.66759766 96.95642578 98.89769531 97.72535156 99.13476562 98.51757812 C101.41857919 106.22958624 102 111.56648433 102 120 C84.51 120 67.02 120 49 120 C49 119.67 49 119.34 49 119 C56.92 119 64.84 119 73 119 C70.0721247 86.79337169 61.38698505 57.56932157 37 35 C36.19820313 34.19175781 35.39640625 33.38351563 34.5703125 32.55078125 C24.12733746 22.18716012 12.0893684 15.45336302 -1 9 C-0.67 6.03 -0.34 3.06 0 0 Z " fill="#8693C2" transform="translate(363,145)"/>
<path d="M0 0 C7.30598299 5.23703205 12.80541597 12.40038251 14.3125 21.375 C15.29035308 33.23319016 13.98521459 42.03645605 6.34375 51.296875 C-1.27422455 59.09064897 -9.9495953 62.23047908 -20.6875 62.375 C-30.3679984 61.5959435 -38.47738332 57.45906587 -45.1171875 50.40234375 C-51.65701158 41.95913803 -53.62728425 32.86465063 -52.6875 22.375 C-50.59111615 12.1905406 -44.57401117 5.51791164 -36.8125 -1.0625 C-24.43030482 -7.25359759 -11.90198111 -7.28692721 0 0 Z " fill="#7E5E92" transform="translate(222.6875,73.625)"/>
<path d="M0 0 C0.86625 0.12375 1.7325 0.2475 2.625 0.375 C4.4375 2.875 4.4375 2.875 5.625 5.375 C-3.01703548 23.05189075 -21.62295581 37.57402997 -38.375 47.375 C-38.97860352 47.72836426 -39.58220703 48.08172852 -40.20410156 48.44580078 C-63.49994567 61.879035 -88.48621 67.60287714 -115.25 67.625 C-116.3513176 67.62601212 -116.3513176 67.62601212 -117.47488403 67.62704468 C-129.01485116 67.61022371 -140.11035357 67.02102262 -151.375 64.375 C-152.45563721 64.13354248 -152.45563721 64.13354248 -153.55810547 63.88720703 C-172.78187291 59.48413951 -192.61538762 51.40956426 -208.375 39.375 C-208.705 38.715 -209.035 38.055 -209.375 37.375 C-208.715 37.375 -208.055 37.375 -207.375 37.375 C-207.375 36.385 -207.375 35.395 -207.375 34.375 C-204.9 33.88 -204.9 33.88 -202.375 33.375 C-202.045 31.725 -201.715 30.075 -201.375 28.375 C-201.045 28.375 -200.715 28.375 -200.375 28.375 C-200.375 30.025 -200.375 31.675 -200.375 33.375 C-199.70597656 33.61605469 -199.03695312 33.85710937 -198.34765625 34.10546875 C-194.65097516 35.68420903 -191.28210217 37.66794883 -187.8125 39.6875 C-154.01842347 58.92831481 -113.81425519 62.54904575 -76.38720703 52.57910156 C-66.6172878 49.83881578 -57.83552553 47.04520299 -49.375 41.375 C-48.08088059 40.58188248 -46.78267915 39.79538683 -45.48046875 39.015625 C-28.88419788 28.93580956 -15.25155551 16.80817106 -3.375 1.375 C-2.375 0.375 -2.375 0.375 0 0 Z " fill="#816295" transform="translate(452.375,361.625)"/>
<path d="M0 0 C6.6 0 13.2 0 20 0 C18.98805119 4.04779525 17.4126464 6.92999826 15.1875 10.375 C14.5989624 11.2877771 14.5989624 11.2877771 13.99853516 12.21899414 C5.52455057 25.00876825 -5.16158895 36.37643873 -17.375 45.625 C-18.07882812 46.1715625 -18.78265625 46.718125 -19.5078125 47.28125 C-32.24914025 57 -32.24914025 57 -38 57 C-38.12117188 55.73542969 -38.24234375 54.47085938 -38.3671875 53.16796875 C-38.53602147 51.50776802 -38.70531633 49.84761411 -38.875 48.1875 C-38.95363281 47.35412109 -39.03226562 46.52074219 -39.11328125 45.66210938 C-39.19707031 44.85966797 -39.28085937 44.05722656 -39.3671875 43.23046875 C-39.44050293 42.49207764 -39.51381836 41.75368652 -39.58935547 40.99291992 C-39.9331578 38.69361347 -39.9331578 38.69361347 -42 36 C-42.99 35.67 -43.98 35.34 -45 35 C-46.28489521 23.59655505 -47.24973226 12.48768414 -47 1 C-42.71 1 -38.42 1 -34 1 C-33.7525 2.11375 -33.505 3.2275 -33.25 4.375 C-32.51603491 6.38217281 -32.51603491 6.38217281 -31 8 C-27.06256024 9.3837458 -23.1461331 9.71097931 -19 10 C-18.19949219 10.08121094 -17.39898437 10.16242188 -16.57421875 10.24609375 C-14.2588566 10.44828952 -14.2588566 10.44828952 -11 10 C-8.85410577 8.10413616 -8.85410577 8.10413616 -7 6 C-3.75 5.25 -3.75 5.25 -1 5 C-0.67 3.35 -0.34 1.7 0 0 Z " fill="#7D5D92" transform="translate(429,350)"/>
<path d="M0 0 C0.763125 0.185625 1.52625 0.37125 2.3125 0.5625 C2.869375 0.706875 3.42625 0.85125 4 1 C4.38218767 2.65614657 4.71395102 4.32457024 5 6 C2.79292188 8.20707812 -3.05210254 7.35346123 -6.18554688 7.4296875 C-8.1311574 7.51435595 -10.06884844 7.74855871 -12 8 C-12.66 8.99 -13.32 9.98 -14 11 C-13.34 10.67 -12.68 10.34 -12 10 C-4.43486027 9.05435753 -0.15001319 11.76556469 6 16 C5.68949334 20.96810655 4.74241433 25.16967709 1.94921875 29.35546875 C-1.52280858 32.28477437 -5.69592439 32.06567024 -10.0859375 32.44921875 C-17.69630749 33.52013908 -25.05488964 36.77875591 -31.7265625 40.53515625 C-36.44917141 42.64849556 -41.31583898 43.49978322 -46.375 44.5 C-54.58785911 46.10465387 -54.58785911 46.10465387 -62.5390625 48.65625 C-66 50 -66 50 -69 50 C-69 42.41 -69 34.82 -69 27 C-60.875 26.75 -60.875 26.75 -58.35107422 26.70214844 C-52.10867164 26.4191476 -48.36534629 24.51900068 -44.015625 19.88671875 C-43.43296875 19.16097656 -42.8503125 18.43523437 -42.25 17.6875 C-36.07840661 10.58609969 -28.74459312 6.15735125 -20.375 2.0625 C-19.7658374 1.75554199 -19.1566748 1.44858398 -18.52905273 1.13232422 C-12.29899136 -1.77063173 -6.61794099 -1.65448525 0 0 Z " fill="#FDD1D1" transform="translate(360,293)"/>
<path d="M0 0 C0.495 4.455 0.495 4.455 1 9 C0.33097656 9.268125 -0.33804688 9.53625 -1.02734375 9.8125 C-14.71876488 15.39933493 -28.03299778 21.1858761 -40 30 C-40.81339844 30.59039062 -41.62679687 31.18078125 -42.46484375 31.7890625 C-54.644314 41.0667789 -64.92093407 52.00886199 -73 65 C-73.62390625 65.97453125 -74.2478125 66.9490625 -74.890625 67.953125 C-88.37161297 89.87438371 -92.47727789 114.11598087 -91.75317383 139.45068359 C-91.69883967 141.45369204 -91.67128511 143.45737087 -91.64453125 145.4609375 C-91.61721924 146.64478027 -91.58990723 147.82862305 -91.56176758 149.04833984 C-92 152 -92 152 -93.8894043 153.91650391 C-96 155 -96 155 -98.125 154.875 C-100 154 -100 154 -102 151 C-107.47649728 118.24633355 -98.04372616 81.64248833 -79.01171875 54.68359375 C-62.34203755 32.44656272 -30.31671382 0 0 0 Z " fill="#8D9CCA" transform="translate(263,139)"/>
<path d="M0 0 C0.66 0.33 1.32 0.66 2 1 C1.3503125 1.5259375 1.3503125 1.5259375 0.6875 2.0625 C-1.68358456 4.78485635 -2.6716835 7.64758216 -4 11 C-0.7 10.67 2.6 10.34 6 10 C6 10.66 6 11.32 6 12 C4.68 12 3.36 12 2 12 C2 17.28 2 22.56 2 28 C6.29 28 10.58 28 15 28 C15 22.72 15 17.44 15 12 C14.01 12 13.02 12 12 12 C12 11.34 12 10.68 12 10 C13.66611905 9.957279 15.33382885 9.95936168 17 10 C19.2397148 12.2397148 18.18531833 17.42897488 18.1875 20.4375 C18.19974609 21.32244141 18.21199219 22.20738281 18.22460938 23.11914062 C18.22654297 23.96541016 18.22847656 24.81167969 18.23046875 25.68359375 C18.23457764 26.46275146 18.23868652 27.24190918 18.24291992 28.04467773 C18 30 18 30 16 32 C14.68 32 13.36 32 12 32 C12 32.99 12 33.98 12 35 C10.35 35 8.7 35 7 35 C7.14084796 36.79206547 7.28783701 38.58364917 7.4375 40.375 C7.51871094 41.37273437 7.59992188 42.37046875 7.68359375 43.3984375 C7.84965626 45.97927613 7.84965626 45.97927613 9 48 C11.12576782 48.46651207 11.12576782 48.46651207 13.5625 48.625 C14.38878906 48.69976562 15.21507812 48.77453125 16.06640625 48.8515625 C16.70449219 48.90054688 17.34257812 48.94953125 18 49 C17.979375 48.33613281 17.95875 47.67226562 17.9375 46.98828125 C18.00392872 44.14430166 18.2070389 41.73740293 19 39 C20.85505713 37.2619675 22.66781619 36.29131243 24.93359375 35.15234375 C28.1214987 33.37458957 29.77466365 30.86114674 32 28 C35 26 35 26 37.5 26.1875 C40.30679137 27.0997072 41.36597823 27.54896734 43 30 C43.6875 33.6875 43.6875 33.6875 44 37 C45.98 36.01 47.96 35.02 50 34 C51.15650933 38.1634336 51.67564642 40.57896301 49.7890625 44.546875 C44.5417262 52.38226404 38.06663997 58.08023459 29 61 C18.90959467 62.86859358 9.93276783 61.82902934 1.09765625 56.46875 C-6.31716978 51.27699099 -11.41992113 44.40082904 -13.61328125 35.515625 C-14.95456667 26.7904956 -14.27116739 18.83422019 -10 11 C-7.22421396 7.42350645 -4.22213009 4.17637976 -1 1 C-0.67 0.67 -0.34 0.34 0 0 Z " fill="#7F5F93" transform="translate(184,74)"/>
<path d="M0 0 C4.3763675 0.7650618 6.05153742 3.19205793 8.6953125 6.49609375 C17.09374732 16.2725009 27.53185138 22.21060121 39.1953125 27.55859375 C41.60752899 21.62460166 41.60752899 21.62460166 42.29296875 15.328125 C42.28974609 14.52568359 42.28652344 13.72324219 42.28320312 12.89648438 C42.27482422 12.06310547 42.26644531 11.22972656 42.2578125 10.37109375 C42.25330078 9.52611328 42.24878906 8.68113281 42.24414062 7.81054688 C42.23236653 5.7265322 42.2144314 3.64255398 42.1953125 1.55859375 C45.11816722 1.88335539 47.52181474 2.15953583 50.07421875 3.671875 C51.821556 6.61251574 51.40584053 9.45788656 51.1328125 12.74609375 C51.08116943 13.47207764 51.02952637 14.19806152 50.97631836 14.94604492 C50.40837243 21.80191286 49.36461208 28.58432778 48.2578125 35.37109375 C48.08822021 36.41483154 47.91862793 37.45856934 47.74389648 38.53393555 C47.57446533 39.51789307 47.40503418 40.50185059 47.23046875 41.515625 C47.079729 42.3919458 46.92898926 43.2682666 46.77368164 44.17114258 C46.18895927 46.58481926 45.50844145 48.45192764 44.1953125 50.55859375 C39.85860144 52.62985873 35.9529956 53.14487313 31.1953125 52.55859375 C26.28282806 49.3138162 22.8377022 45.13519132 19.1953125 40.55859375 C18.3337782 39.52436884 17.47181508 38.49050095 16.609375 37.45703125 C11.71081453 31.35314675 7.34952642 24.92068564 3.0703125 18.37109375 C2.58425537 17.62770752 2.09819824 16.88432129 1.59741211 16.1184082 C1.15276611 15.42448975 0.70812012 14.73057129 0.25 14.015625 C-0.14719238 13.3966333 -0.54438477 12.7776416 -0.95361328 12.13989258 C-1.8046875 10.55859375 -1.8046875 10.55859375 -1.8046875 8.55859375 C-4.2796875 7.56859375 -4.2796875 7.56859375 -6.8046875 6.55859375 C-3.64538222 0.72603016 -3.64538222 0.72603016 0 0 Z " fill="#72CFEB" transform="translate(297.8046875,197.44140625)"/>
<path d="M0 0 C1.38086832 0.00078959 2.76189782 0.02892951 4.1418457 0.0793457 C4.87007034 0.08642044 5.59829498 0.09349518 6.34858704 0.1007843 C8.67264932 0.12875614 10.99429426 0.19149045 13.31762695 0.25512695 C14.89376401 0.28020664 16.46993886 0.3030204 18.04614258 0.32348633 C21.90840093 0.37859069 25.76885427 0.46487467 29.63012695 0.56762695 C31.01269511 4.32304955 30.22012769 6.7873025 29.0480957 10.5402832 C28.69295898 11.6869043 28.33782227 12.83352539 27.97192383 14.01489258 C27.59100586 15.20791992 27.21008789 16.40094727 26.81762695 17.63012695 C26.26365234 19.42546875 26.26365234 19.42546875 25.69848633 21.25708008 C22.9131859 30.14303853 22.9131859 30.14303853 20.63012695 33.56762695 C18.68481445 33.8605957 18.68481445 33.8605957 16.50512695 33.75512695 C15.22637695 33.69325195 13.94762695 33.63137695 12.63012695 33.56762695 C12.30012695 34.22762695 11.97012695 34.88762695 11.63012695 35.56762695 C11.63012695 34.90762695 11.63012695 34.24762695 11.63012695 33.56762695 C3.71012695 33.56762695 -4.20987305 33.56762695 -12.36987305 33.56762695 C-12.36987305 25.75224234 -12.36987305 25.75224234 -11.05737305 22.38012695 C-9.37791808 17.78330889 -8.27452938 13.13858043 -7.21362305 8.36450195 C-4.9413473 0.83232866 -4.9413473 0.83232866 0 0 Z " fill="#FBC772" transform="translate(446.369873046875,199.432373046875)"/>
<path d="M0 0 C0.99 0.66 1.98 1.32 3 2 C3.99 1.67 4.98 1.34 6 1 C11.94324632 -0.37151838 17.93966003 -0.08825738 24 0 C24.14695312 1.11181641 24.14695312 1.11181641 24.296875 2.24609375 C27.20403513 22.72152331 31.39468099 43.07363152 48.3125 56.6875 C49.6428125 57.8321875 49.6428125 57.8321875 51 59 C51 59.66 51 60.32 51 61 C53.31 61.33 55.62 61.66 58 62 C58 62.33 58 62.66 58 63 C48.19975824 63.85219494 39.47366314 59.02496394 32 53 C24.89052499 46.56698623 20.70274001 38.71301009 17 30 C17 29.34 17 28.68 17 28 C15.80375 28.04125 14.6075 28.0825 13.375 28.125 C9.57670047 28.13851708 6.55024382 27.42009753 3 26 C3 25.34 3 24.68 3 24 C2.01 23.34 1.02 22.68 0 22 C-1.48868211 18.19481722 -2.55905031 13.95855208 -1.41796875 9.9609375 C-0.61871051 8.30402772 0.19028253 6.65182365 1 5 C0.80486248 2.16926919 0.80486248 2.16926919 0 0 Z " fill="#FAE0DF" transform="translate(264,126)"/>
<path d="M0 0 C13.02730644 2.45798235 23.95449629 9.92221698 31.52490234 20.74560547 C38.3398606 31.02958069 42.46804232 41.74433859 44 54 C37.73 54 31.46 54 25 54 C20.84821429 41.41071429 20.84821429 41.41071429 20.5 35.5625 C20.15512166 31.04239239 19.21332219 28.37810794 16 25 C14.69672863 24.65100683 13.38253738 24.34145129 12.0625 24.0625 C9.9609375 23.42578125 9.9609375 23.42578125 8 22 C6.02125008 17.75329825 4.80222397 13.44676007 3.58740234 8.93554688 C2.64686957 5.83640148 1.33319845 2.94908082 0 0 Z " fill="#FCFCFB" transform="translate(367,211)"/>
<path d="M0 0 C0.33 0 0.66 0 1 0 C1 5.61 1 11.22 1 17 C-0.65 17 -2.3 17 -4 17 C-4.165 17.598125 -4.33 18.19625 -4.5 18.8125 C-6.23624282 21.34452078 -6.98220955 21.51006019 -9.8125 22.4375 C-15.13352922 24.20473838 -17.9218713 27.38280695 -21 32 C-22.47226042 45.31882097 -18.58861021 52.96323138 -11.390625 63.71484375 C-10 66 -10 66 -10 68 C-8.783125 67.9175 -7.56625 67.835 -6.3125 67.75 C-2.9273826 67.73799604 -2.06131766 67.96086107 0.9375 69.875 C4.29641165 73.33569686 4.46659721 76.05382909 4.40625 80.73828125 C4 83 4 83 1.4375 86 C-2.35557486 88.20687992 -4.61177459 89.07836117 -9 89 C-12.16483536 87.38772538 -14.27108725 85.99397194 -16.375 83.125 C-17.42324087 79.56098103 -17.46911664 76.2810493 -16.1875 72.78125 C-15.89317977 68.41549995 -18.3176772 65.8708353 -20.8125 62.4375 C-21.73753357 61.12500438 -22.66076868 59.81123903 -23.58203125 58.49609375 C-23.99686768 57.92044678 -24.4117041 57.3447998 -24.83911133 56.75170898 C-29.74429838 49.35008604 -29.74004684 40.62683169 -29 32 C-27.3073506 25.80041664 -23.07637061 20.81936455 -18 17 C-12.00576007 13.68507776 -6.79870985 12.49639186 0 13 C0 8.71 0 4.42 0 0 Z " fill="#FBC772" transform="translate(299,181)"/>
<path d="M0 0 C5.36446644 0.49454748 9.45776368 1.87507439 14.1875 4.5 C14.83968506 4.85674805 15.49187012 5.21349609 16.16381836 5.58105469 C22.55393954 9.16569975 28.31976033 13.3751855 34 18 C34.5554248 18.44327637 35.11084961 18.88655273 35.68310547 19.34326172 C44.85550055 26.69397052 52.79267235 34.70359187 60 44 C60.639375 44.79019531 61.27875 45.58039063 61.9375 46.39453125 C63.51473538 50.26223712 62.42365134 53.40077791 61.3125 57.25 C61.12494141 57.9821875 60.93738281 58.714375 60.74414062 59.46875 C60.24117761 61.33541687 59.6282239 63.17168062 59 65 C58.01 65.495 58.01 65.495 57 66 C56.50371094 64.98421875 56.00742187 63.9684375 55.49609375 62.921875 C48.62699168 48.95009752 41.47361389 36.57128521 31 25 C30.33097656 24.25878906 29.66195313 23.51757812 28.97265625 22.75390625 C21.10434205 14.48635412 11.65985033 7.63104478 1.73046875 2.05859375 C1.15941406 1.70925781 0.58835937 1.35992187 0 1 C0 0.67 0 0.34 0 0 Z " fill="#7E5E92" transform="translate(379,152)"/>
<path d="M0 0 C6.99031446 2.61254177 11.18989827 7.05637655 15.9375 12.609375 C18.47628648 15.55205933 21.07243449 18.43762236 23.6875 21.3125 C24.15115967 21.82820557 24.61481934 22.34391113 25.0925293 22.87524414 C27.06538869 25.03910557 28.97640854 26.98249411 31.33203125 28.73046875 C32.15767578 29.35888672 32.15767578 29.35888672 33 30 C33 30.66 33 31.32 33 32 C33.969375 32.2475 34.93875 32.495 35.9375 32.75 C39 34 39 34 40.0625 35.8125 C39.97610071 38.8364753 38.69841002 40.55428957 37 43 C24.22461134 39.12106779 14.1548229 31.46862458 5 22 C4.06929688 21.071875 3.13859375 20.14375 2.1796875 19.1875 C-0.61862792 15.09533981 -0.5952503 12.43610518 -0.3125 7.625 C-0.28994141 6.88894531 -0.26738281 6.15289062 -0.24414062 5.39453125 C-0.18572927 3.59546158 -0.09606337 1.79745247 0 0 Z " fill="#FCCFCF" transform="translate(300,182)"/>
<path d="M0 0 C5.15271342 10.1223355 7 19.64423812 7 31 C0.4 31 -6.2 31 -13 31 C-13.50457999 27.12554649 -14.00382474 23.25053105 -14.5 19.375 C-14.64308594 18.28058594 -14.78617187 17.18617188 -14.93359375 16.05859375 C-15.06894531 14.99511719 -15.20429688 13.93164062 -15.34375 12.8359375 C-15.46943359 11.86188965 -15.59511719 10.8878418 -15.72460938 9.88427734 C-16.00906019 6.90510895 -16.04655007 3.99084203 -16 1 C-10.63904667 -0.12862175 -5.44693314 -0.09688221 0 0 Z " fill="#7D5E93" transform="translate(458,233)"/>
<path d="M0 0 C2 3 2 3 2 7 C2.66 7 3.32 7 4 7 C6.71537854 13.41816746 8.78697915 19.98045589 9 27 C7.25 29.9375 7.25 29.9375 5 32 C3.75983331 34.6794645 3.75983331 34.6794645 3 37 C-0.7397089 37.2933105 -3.2365014 37.42248475 -6.5625 35.58203125 C-10.00632112 31.9340092 -10.71262593 28.24449059 -11.8125 23.4375 C-12.13637695 22.14295898 -12.13637695 22.14295898 -12.46679688 20.82226562 C-13.29237507 17.44918899 -14 14.48543481 -14 11 C-13.01 10.67 -12.02 10.34 -11 10 C-11.103125 8.906875 -11.20625 7.81375 -11.3125 6.6875 C-11 3 -11 3 -8.875 1.0625 C-5.63963583 -0.13317806 -3.41926423 -0.4559019 0 0 Z " fill="#FAFDFC" transform="translate(380,240)"/>
<path d="M0 0 C9.30399661 0.30504907 16.76432772 3.82880072 23.75 10 C29.63258657 16.37751572 33.51205413 25.32346126 35.4375 33.6875 C36.24651518 37.02191138 36.24651518 37.02191138 38.8125 39.06640625 C40.21564359 39.51778516 41.63194804 39.93032629 43.05859375 40.30078125 C46.40049367 41.50440315 47.50128572 43.94012501 49 47 C49 48.32 49 49.64 49 51 C46.03 51.495 46.03 51.495 43 52 C42.34 50.02 41.68 48.04 41 46 C39.52031676 46.14049518 38.04125484 46.28754826 36.5625 46.4375 C35.73878906 46.51871094 34.91507812 46.59992188 34.06640625 46.68359375 C32.01337975 46.78930815 32.01337975 46.78930815 31 48 C30.95907063 50.33297433 30.95758277 52.66705225 31 55 C29.35 55.66 27.7 56.32 26 57 C24 55 24 55 23.5625 51.25 C23.60955653 47.49892202 23.90111174 47.10830619 26.625 44.125 C29.21815796 41.35658502 29.21815796 41.35658502 29.02734375 38.7578125 C28.53178317 36.08428398 27.8415475 33.58556902 27 31 C26.58814453 29.70255859 26.58814453 29.70255859 26.16796875 28.37890625 C22.78199653 18.91259243 17.05952977 13.67756348 9 8 C8.31679688 7.46246094 7.63359375 6.92492187 6.9296875 6.37109375 C4.64493549 4.74771732 2.75086778 4.38206497 0 4 C0 2.68 0 1.36 0 0 Z " fill="#FAC774" transform="translate(339,195)"/>
<path d="M0 0 C0.55945313 0.2165625 1.11890625 0.433125 1.6953125 0.65625 C12.16738294 4.29285324 21.81562724 4.21191784 32 0 C33.21312497 10.35488814 34.37534623 20.55286325 34 31 C28.25 29.125 28.25 29.125 26 28 C26 27.34 26 26.68 26 26 C25.42894531 25.75507813 24.85789062 25.51015625 24.26953125 25.2578125 C17.19681899 21.33799607 8.5426708 12.16978453 4.94140625 4.84765625 C3.73212807 2.47425966 2.42319952 1.96927981 0 1 C0 0.67 0 0.34 0 0 Z " fill="#FAB0B2" transform="translate(307,186)"/>
<path d="M0 0 C2.92285472 0.32476164 5.32650224 0.60094208 7.87890625 2.11328125 C9.62623423 5.05390639 9.21055906 7.89930212 8.9375 11.1875 C8.88585693 11.91275879 8.83421387 12.63801758 8.78100586 13.38525391 C8.21092073 20.26195032 7.16812388 27.06679225 6.0625 33.875 C5.89290771 34.9271167 5.72331543 35.9792334 5.54858398 37.06323242 C5.37915283 38.0504126 5.20972168 39.03759277 5.03515625 40.0546875 C4.8844165 40.93624512 4.73367676 41.81780273 4.57836914 42.72607422 C4 45 4 45 2 48 C-1.0390625 48.29296875 -1.0390625 48.29296875 -4.625 48.1875 C-5.81351562 48.16042969 -7.00203125 48.13335937 -8.2265625 48.10546875 C-9.14179688 48.07066406 -10.05703125 48.03585938 -11 48 C-11 47.01 -11 46.02 -11 45 C-10.01 45 -9.02 45 -8 45 C-8.34786708 43.02463255 -8.34786708 43.02463255 -9 41 C-9.66 40.67 -10.32 40.34 -11 40 C-12.26229508 35.52459016 -12.26229508 35.52459016 -11 33 C-9.35 33.33 -7.7 33.66 -6 34 C-5.67 34.99 -5.34 35.98 -5 37 C-4.34 35.35 -3.68 33.7 -3 32 C-2.67 32 -2.34 32 -2 32 C-1.67 33.65 -1.34 35.3 -1 37 C-0.67 37 -0.34 37 0 37 C0.53673893 31.63909407 0.53673893 31.63909407 -1.5 27 C-1.995 26.67 -2.49 26.34 -3 26 C-2.690625 25.236875 -2.38125 24.47375 -2.0625 23.6875 C-0.68298486 20.19813816 0.12413088 17.50245466 0.09765625 13.76953125 C0.09443359 12.96708984 0.09121094 12.16464844 0.08789062 11.33789062 C0.07951172 10.50451172 0.07113281 9.67113281 0.0625 8.8125 C0.05798828 7.96751953 0.05347656 7.12253906 0.04882812 6.25195312 C0.03705403 4.16793845 0.0191189 2.08396023 0 0 Z " fill="#72D0EB" transform="translate(340,199)"/>
<path d="M0 0 C0.33 0 0.66 0 1 0 C2.56366219 5.54389323 1.43797701 9.92088123 -1 15 C-1.98870164 16.01117213 -2.98783098 17.01231894 -4 18 C-4.33 18.99 -4.66 19.98 -5 21 C-4.34 21.33 -3.68 21.66 -3 22 C-3.66 22 -4.32 22 -5 22 C-5.0928125 23.7634375 -5.0928125 23.7634375 -5.1875 25.5625 C-6.84246415 40.08940754 -12.80180188 50.88613925 -23.82421875 60.296875 C-26.43939467 62.34394269 -28.85519313 63.90297435 -32 65 C-34.16796875 64.55859375 -34.16796875 64.55859375 -36 64 C-35.28714844 63.5875 -34.57429688 63.175 -33.83984375 62.75 C-18.630277 53.57922489 -11.54679769 39.91308811 -7 23 C-6.52824696 20.64523271 -6.2176746 18.39442059 -6 16 C-6.66 16.33 -7.32 16.66 -8 17 C-10.87910588 17.23274209 -13.74146495 17.41972757 -16.625 17.5625 C-17.42679687 17.60568359 -18.22859375 17.64886719 -19.0546875 17.69335938 C-21.0362511 17.79951457 -23.01810271 17.90026855 -25 18 C-27.13181214 14.25712373 -26.95685425 12.21015871 -26 8 C-24.02 7.67 -22.04 7.34 -20 7 C-19.67 7.66 -19.34 8.32 -19 9 C-18.01 9 -17.02 9 -16 9 C-15.67 8.01 -15.34 7.02 -15 6 C-11.96663814 5.77106703 -9.02534949 5.63524155 -6 6 C-3.9375 8 -3.9375 8 -3 10 C-0.70366176 6.55549263 -0.45983515 4.06187717 0 0 Z " fill="#FCE8E6" transform="translate(368,123)"/>
<path d="M0 0 C0.66 0.33 1.32 0.66 2 1 C1.67 6.94 1.34 12.88 1 19 C-5.35651112 21.33413135 -11.13958155 22.63221846 -17.875 23.1875 C-18.77323486 23.26863037 -19.67146973 23.34976074 -20.59692383 23.43334961 C-27.78156885 24.02751164 -34.92847458 24.156047 -42.13427734 24.0144043 C-46.19594977 23.81956174 -46.19594977 23.81956174 -50 25 C-50 23.35 -50 21.7 -50 20 C-52.31 20 -54.62 20 -57 20 C-57 19.67 -57 19.34 -57 19 C-56.34741211 19.01047363 -55.69482422 19.02094727 -55.02246094 19.03173828 C-43.58493616 19.18998074 -32.20525385 19.26600746 -20.8125 18.125 C-19.6044873 18.00729248 -19.6044873 18.00729248 -18.37207031 17.88720703 C-13.82195498 17.38174646 -10.50446321 16.50148774 -6 15 C-5.505 8.565 -5.505 8.565 -5 2 C-3.35 1.34 -1.7 0.68 0 0 Z " fill="#F0F0F0" transform="translate(296,341)"/>
<path d="M0 0 C0.268125 0.804375 0.53625 1.60875 0.8125 2.4375 C1.4003125 3.7059375 1.4003125 3.7059375 2 5 C2.99 5.33 3.98 5.66 5 6 C5 6.66 5 7.32 5 8 C-8.86 8 -22.72 8 -37 8 C-37 5.69 -37 3.38 -37 1 C-32.37355886 0.85680426 -27.74709399 0.71441061 -23.12060547 0.57275391 C-21.54735653 0.52447088 -19.97411425 0.47597028 -18.40087891 0.42724609 C-16.13706153 0.35717215 -13.8732212 0.28788561 -11.609375 0.21875 C-10.90818542 0.19687622 -10.20699585 0.17500244 -9.48455811 0.15246582 C-6.32029134 0.05653508 -3.16626361 0 0 0 Z " fill="#D1D1D1" transform="translate(365,344)"/>
<path d="M0 0 C0.042721 1.66611905 0.04063832 3.33382885 0 5 C-1 6 -1 6 -4.0625 6.0625 C-5.031875 6.041875 -6.00125 6.02125 -7 6 C-7.433125 6.9590625 -7.433125 6.9590625 -7.875 7.9375 C-9 10 -9 10 -11 11 C-17.63737317 11.36874295 -24.63437899 10.99927653 -31 9 C-32.85546875 7.171875 -32.85546875 7.171875 -34 5 C-34 3.68 -34 2.36 -34 1 C-29.96154606 0.85646482 -25.92305315 0.71408569 -21.88452148 0.57275391 C-20.51211459 0.52456523 -19.13971854 0.47606675 -17.76733398 0.42724609 C-15.78892891 0.35692194 -13.8104804 0.28782304 -11.83203125 0.21875 C-10.64327393 0.17685547 -9.4545166 0.13496094 -8.22973633 0.09179688 C-5.48377864 0.01375015 -2.74674708 -0.0181154 0 0 Z " fill="#F8CCCE" transform="translate(429,350)"/>
<path d="M0 0 C4.31566167 0.47951796 6.2019941 1.70235018 9 5 C10.22433319 7.44866637 10.12927868 9.06170021 10.1328125 11.796875 C10.13474609 13.23546875 10.13474609 13.23546875 10.13671875 14.703125 C10.13285156 15.70859375 10.12898438 16.7140625 10.125 17.75 C10.12886719 18.74 10.13273437 19.73 10.13671875 20.75 C10.13022137 25.61003873 10.02345482 30.22387751 9 35 C8.01 34.67 7.02 34.34 6 34 C5.55216462 31.96751634 5.11580634 29.93197211 4.73046875 27.88671875 C2.99573363 21.03126818 -0.08617093 13.8707436 -4 8 C-3.875 5.9375 -3.875 5.9375 -3 4 C-0.9375 2.75 -0.9375 2.75 1 2 C0.67 1.34 0.34 0.68 0 0 Z " fill="#263732" transform="translate(354,81)"/>
<path d="M0 0 C4.95 0 9.9 0 15 0 C16.73191032 5.19573096 13.78219971 9.97743719 12 15 C4.08 15.495 4.08 15.495 -4 16 C-3.47606294 10.13190493 -2.23891142 5.45126259 0 0 Z " fill="#58B0E4" transform="translate(475,170)"/>
<path d="M0 0 C0.33 0 0.66 0 1 0 C1 5.61 1 11.22 1 17 C-0.65 17 -2.3 17 -4 17 C-4.165 17.598125 -4.33 18.19625 -4.5 18.8125 C-6.23624282 21.34452078 -6.98220955 21.51006019 -9.8125 22.4375 C-15.05943618 24.20548937 -17.78752641 27.09468436 -20.75 31.75 C-22.31631929 35.82243016 -22.72095758 39.67003144 -23 44 C-23.33 44 -23.66 44 -24 44 C-24 40.7 -24 37.4 -24 34 C-25.32 34.99 -26.64 35.98 -28 37 C-28.46509102 31.30263497 -27.51690516 27.46528408 -24 23 C-18.87703122 17.51434316 -13.37868419 13.40524333 -5.71875 12.828125 C-3.81168654 12.81469498 -1.90438002 12.89797964 0 13 C0 8.71 0 4.42 0 0 Z " fill="#F9C571" transform="translate(299,181)"/>
<path d="M0 0 C0.99 1.485 0.99 1.485 2 3 C3.32 3 4.64 3 6 3 C6.33 3 6.66 3 7 3 C7.02578125 3.68964844 7.0515625 4.37929687 7.078125 5.08984375 C7.72557694 15.81694522 11.58903075 22.7546183 17.609375 31.51953125 C19 34 19 34 19 38 C18.34 38 17.68 38 17 38 C16.34 37.34 15.68 36.68 15 36 C14.34 36.66 13.68 37.32 13 38 C11.37212884 35.58522432 9.74762719 33.16829562 8.125 30.75 C7.66480469 30.06808594 7.20460938 29.38617188 6.73046875 28.68359375 C6.28574219 28.01972656 5.84101563 27.35585937 5.3828125 26.671875 C4.77010498 25.76066895 4.77010498 25.76066895 4.14501953 24.83105469 C0.35092116 18.7637332 -0.13495007 13.22510707 -0.0625 6.125 C-0.05347656 4.97257813 -0.04445313 3.82015625 -0.03515625 2.6328125 C-0.02355469 1.76398438 -0.01195312 0.89515625 0 0 Z " fill="#FBC977" transform="translate(270,213)"/>
<path d="M0 0 C-0.33 1.65 -0.66 3.3 -1 5 C-0.34 5 0.32 5 1 5 C0.875 6.875 0.875 6.875 0 9 C-4.62553537 11.01049106 -8.74364558 11.26978796 -13.75 11.25 C-15.06484375 11.25515625 -16.3796875 11.2603125 -17.734375 11.265625 C-21 11 -21 11 -23 9 C-23.3125 6 -23.3125 6 -23 3 C-19.80734232 0.87156155 -17.92624957 0.46755654 -14.1875 -0.125 C-13.17042969 -0.29257813 -12.15335937 -0.46015625 -11.10546875 -0.6328125 C-3.14750763 -1.57375381 -3.14750763 -1.57375381 0 0 Z " fill="#F9E6E3" transform="translate(328,134)"/>
<path d="M0 0 C2.32536063 3.48804095 2.33457898 4.90140754 2 9 C1.11188602 11.82581721 0.17185992 12.8584683 -2.125 14.75 C-6.13636443 16.49407149 -8.63409998 16.4929242 -13 16 C-15.0625 14.4375 -15.0625 14.4375 -16 12 C-16.08285483 7.44298424 -15.46917338 5.55127872 -12.5 2.0625 C-8.77470568 -0.67721888 -4.45461966 -1.06910872 0 0 Z " fill="#FDFDFD" transform="translate(448,301)"/>
<path d="M0 0 C1.4540625 0.0309375 1.4540625 0.0309375 2.9375 0.0625 C2.9375 0.7225 2.9375 1.3825 2.9375 2.0625 C1.6175 2.0625 0.2975 2.0625 -1.0625 2.0625 C-1.0625 7.3425 -1.0625 12.6225 -1.0625 18.0625 C3.2275 18.0625 7.5175 18.0625 11.9375 18.0625 C11.9375 12.7825 11.9375 7.5025 11.9375 2.0625 C10.9475 2.0625 9.9575 2.0625 8.9375 2.0625 C8.9375 1.4025 8.9375 0.7425 8.9375 0.0625 C10.60361905 0.019779 12.27132885 0.02186168 13.9375 0.0625 C16.1772148 2.3022148 15.12281833 7.49147488 15.125 10.5 C15.13724609 11.38494141 15.14949219 12.26988281 15.16210938 13.18164062 C15.16500977 14.45104492 15.16500977 14.45104492 15.16796875 15.74609375 C15.17207764 16.52525146 15.17618652 17.30440918 15.18041992 18.10717773 C14.9375 20.0625 14.9375 20.0625 12.9375 22.0625 C11.6175 22.0625 10.2975 22.0625 8.9375 22.0625 C8.9375 23.0525 8.9375 24.0425 8.9375 25.0625 C6.6275 25.0625 4.3175 25.0625 1.9375 25.0625 C1.9375 24.0725 1.9375 23.0825 1.9375 22.0625 C1.133125 21.918125 0.32875 21.77375 -0.5 21.625 C-3.0625 21.0625 -3.0625 21.0625 -4.0625 20.0625 C-4.16110131 18.65901265 -4.19328937 17.25069523 -4.1953125 15.84375 C-4.19660156 14.99425781 -4.19789063 14.14476563 -4.19921875 13.26953125 C-4.19535156 12.37621094 -4.19148437 11.48289062 -4.1875 10.5625 C-4.19136719 9.66917969 -4.19523438 8.77585937 -4.19921875 7.85546875 C-4.19792969 7.00597656 -4.19664062 6.15648438 -4.1953125 5.28125 C-4.19418457 4.49685547 -4.19305664 3.71246094 -4.19189453 2.90429688 C-3.96768785 -0.2870525 -3.25496391 0.06642783 0 0 Z " fill="#F6F4F7" transform="translate(187.0625,83.9375)"/>
<path d="M0 0 C4.29 0 8.58 0 13 0 C11.125 9.625 11.125 9.625 10 13 C5.71 13 1.42 13 -3 13 C-2.25 4.5 -2.25 4.5 0 0 Z " fill="#F37181" transform="translate(403,210)"/>
<path d="M0 0 C0.33 0.66 0.66 1.32 1 2 C1.66 2 2.32 2 3 2 C3 2.66 3 3.32 3 4 C3.66 4 4.32 4 5 4 C5 3.34 5 2.68 5 2 C10.75 3.75 10.75 3.75 13 6 C12.74997427 10.50046315 10.58245696 13.41788227 8 17 C8.99 17.66 9.98 18.32 11 19 C6.64546078 18.74385063 4.50390232 18.42722153 1.125 15.5625 C-1.9985168 11.79590621 -2.28639098 9.86864662 -2 5 C-1 2.125 -1 2.125 0 0 Z " fill="#FBCA78" transform="translate(284,251)"/>
<path d="M0 0 C2.4375 1.5625 2.4375 1.5625 4 4 C3.9375 7.625 3.9375 7.625 3 11 C-0.49124017 13.32749345 -1.89222251 13.50299316 -6 13 C-8.4375 11.4375 -8.4375 11.4375 -10 9 C-9.9375 5.375 -9.9375 5.375 -9 2 C-5.50875983 -0.32749345 -4.10777749 -0.50299316 0 0 Z " fill="#FCCD81" transform="translate(159,188)"/>
<path d="M0 0 C0.33 0 0.66 0 1 0 C1.94228607 9.2344035 -1.38598149 19.87093757 -6.75 27.4375 C-11.66570242 33.24005595 -17.71151951 39.45750681 -25 42 C-27.16796875 41.55859375 -27.16796875 41.55859375 -29 41 C-28.28714844 40.5875 -27.57429688 40.175 -26.83984375 39.75 C-11.35412136 30.41271382 -5.00672594 16.97933144 0 0 Z " fill="#F8F5F6" transform="translate(361,146)"/>
<path d="M0 0 C2 3 2 3 1.75 6.5625 C1 10 1 10 -1 12 C-8.1372549 12.67973856 -8.1372549 12.67973856 -11.0625 10.375 C-12.34452118 7.12721302 -12.05543562 5.30703161 -11 2 C-7.74497881 -1.88098681 -4.6330741 -1.20116736 0 0 Z " fill="#F9C66E" transform="translate(421,140)"/>
<path d="M0 0 C0.7940625 0.00515625 1.588125 0.0103125 2.40625 0.015625 C3.2003125 0.01046875 3.994375 0.0053125 4.8125 0 C6.90625 0.265625 6.90625 0.265625 8.90625 2.265625 C9.03125 5.390625 9.03125 5.390625 8.90625 8.265625 C8.24625 8.265625 7.58625 8.265625 6.90625 8.265625 C6.57625 6.615625 6.24625 4.965625 5.90625 3.265625 C3.59625 3.265625 1.28625 3.265625 -1.09375 3.265625 C-1.11953125 4.31363281 -1.1453125 5.36164063 -1.171875 6.44140625 C-1.22815858 7.82035402 -1.28550588 9.19925865 -1.34375 10.578125 C-1.36501953 11.61356445 -1.36501953 11.61356445 -1.38671875 12.66992188 C-1.54402632 15.92618856 -1.63669285 17.79416479 -3.953125 20.18359375 C-6.09375 21.265625 -6.09375 21.265625 -9.09375 22.265625 C-9.75375 25.565625 -10.41375 28.865625 -11.09375 32.265625 C-17.9296875 32.55859375 -17.9296875 32.55859375 -20.09375 32.265625 C-22.30289 28.951915 -22.31856553 27.9210229 -22.21875 24.078125 C-22.20070312 23.17707031 -22.18265625 22.27601562 -22.1640625 21.34765625 C-22.14085937 20.66058594 -22.11765625 19.97351563 -22.09375 19.265625 C-21.43375 19.265625 -20.77375 19.265625 -20.09375 19.265625 C-20.09375 22.565625 -20.09375 25.865625 -20.09375 29.265625 C-17.78375 29.265625 -15.47375 29.265625 -13.09375 29.265625 C-12.9390625 27.3784375 -12.9390625 27.3784375 -12.78125 25.453125 C-12.45193448 22.86433911 -12.25921196 21.50987836 -10.78125 19.328125 C-8.90378821 18.14601943 -7.243072 17.75753168 -5.09375 17.265625 C-5.04476562 16.20601562 -4.99578125 15.14640625 -4.9453125 14.0546875 C-4.87028291 12.66664003 -4.79473515 11.27862049 -4.71875 9.890625 C-4.67234375 8.84261719 -4.67234375 8.84261719 -4.625 7.7734375 C-4.2073266 0.53376532 -4.2073266 0.53376532 0 0 Z " fill="#3B4652" transform="translate(213.09375,90.734375)"/>
<path d="M0 0 C0.33 0 0.66 0 1 0 C1.18175781 0.62648437 1.36351562 1.25296875 1.55078125 1.8984375 C1.92783203 3.12433594 1.92783203 3.12433594 2.3125 4.375 C2.67794922 5.59316406 2.67794922 5.59316406 3.05078125 6.8359375 C3.91368185 9.33184629 3.91368185 9.33184629 7 11 C6.67 12.65 6.34 14.3 6 16 C1.38 16 -3.24 16 -8 16 C-8 15.01 -8 14.02 -8 13 C-7.01 13 -6.02 13 -5 13 C-5.34786708 11.02463255 -5.34786708 11.02463255 -6 9 C-6.66 8.67 -7.32 8.34 -8 8 C-9.26229508 3.52459016 -9.26229508 3.52459016 -8 1 C-6.35 1.33 -4.7 1.66 -3 2 C-2.67 2.99 -2.34 3.98 -2 5 C-1.34 3.35 -0.68 1.7 0 0 Z " fill="#79D3EC" transform="translate(337,231)"/>
<path d="M0 0 C1.875 1.125 1.875 1.125 3 3 C2.875 6.5625 2.875 6.5625 2 10 C-1 12 -1 12 -4.0625 11.75 C-7 11 -7 11 -9 9 C-9.375 5.5625 -9.375 5.5625 -9 2 C-6.18112246 -1.3408919 -4.01115641 -1.4399023 0 0 Z " fill="#F2EFF4" transform="translate(224,101)"/>
<path d="M0 0 C0.33 0 0.66 0 1 0 C1 5.61 1 11.22 1 17 C-0.65 17 -2.3 17 -4 17 C-4.185625 17.61875 -4.37125 18.2375 -4.5625 18.875 C-6.71437233 22.05602866 -9.37533763 22.19451947 -13 23 C-13.33 22.01 -13.66 21.02 -14 20 C-15.65 19.67 -17.3 19.34 -19 19 C-15.40707847 15.05331388 -11.01338652 13.2455731 -5.69921875 12.8125 C-3.79845134 12.8125 -1.89804576 12.89831898 0 13 C0 8.71 0 4.42 0 0 Z " fill="#E9BA75" transform="translate(299,181)"/>
<path d="M0 0 C1.875 0.3125 1.875 0.3125 4 1 C6.0140956 4.0211434 6.26836596 4.80660017 6.4140625 8.23046875 C6.45273437 9.03291016 6.49140625 9.83535156 6.53125 10.66210938 C6.5621875 11.49548828 6.593125 12.32886719 6.625 13.1875 C6.66367187 14.03248047 6.70234375 14.87746094 6.7421875 15.74804688 C6.83636279 17.83167524 6.91926675 19.91580753 7 22 C8.65 22 10.3 22 12 22 C11 24 11 24 9.15234375 24.6328125 C8.05599609 24.87644531 8.05599609 24.87644531 6.9375 25.125 C6.20402344 25.29257812 5.47054688 25.46015625 4.71484375 25.6328125 C4.14894531 25.75398438 3.58304687 25.87515625 3 26 C2.49800786 22.04191662 1.99874328 18.08349396 1.5 14.125 C1.35691406 12.99707031 1.21382813 11.86914062 1.06640625 10.70703125 C0.93105469 9.63066406 0.79570312 8.55429687 0.65625 7.4453125 C0.53056641 6.45031738 0.40488281 5.45532227 0.27539062 4.43017578 C0 2 0 2 0 0 Z " fill="#F2F1F3" transform="translate(384,385)"/>
<path d="M0 0 C2.97 0 5.94 0 9 0 C9.83790789 1.78953185 10.67019396 3.58169695 11.5 5.375 C11.9640625 6.37273437 12.428125 7.37046875 12.90625 8.3984375 C14 11 14 11 14 13 C6.64957265 12.63247863 6.64957265 12.63247863 3.625 9.6875 C0 3.69230769 0 3.69230769 0 0 Z " fill="#172926" transform="translate(272,154)"/>
<path d="M0 0 C1.6875 1.3125 1.6875 1.3125 2.6875 3.3125 C-6.42401067 7.27797474 -14.42471292 9.31927401 -24.3125 10.3125 C-24.6425 9.3225 -24.9725 8.3325 -25.3125 7.3125 C-24.15492188 6.98636719 -22.99734375 6.66023438 -21.8046875 6.32421875 C-20.26553666 5.88312064 -18.72647905 5.44169711 -17.1875 5 C-16.42695313 4.78666016 -15.66640625 4.57332031 -14.8828125 4.35351562 C-11.33746114 3.3296426 -8.21783745 2.26500607 -4.90234375 0.6015625 C-2.3125 -0.6875 -2.3125 -0.6875 0 0 Z " fill="#EDADAF" transform="translate(346.3125,82.6875)"/>
<path d="M0 0 C2.97 0.495 2.97 0.495 6 1 C6 1.99 6 2.98 6 4 C5.67 4.33 5.34 4.66 5 5 C4.79395915 6.32781878 4.6337041 7.66295895 4.5 9 C4.11111111 12.88888889 4.11111111 12.88888889 3 14 C0.66055264 13.71269945 -1.6739143 13.38063221 -4 13 C-4 9.7 -4 6.4 -4 3 C-4.66 2.67 -5.32 2.34 -6 2 C-3.03 2.495 -3.03 2.495 0 3 C0 2.01 0 1.02 0 0 Z " fill="#75588B" transform="translate(197,107)"/>
<path d="M0 0 C-0.33 2.31 -0.66 4.62 -1 7 C-1.99 7.33 -2.98 7.66 -4 8 C-4.57234375 7.70351562 -5.1446875 7.40703125 -5.734375 7.1015625 C-8.89045069 5.56705673 -11.76184392 5.56878645 -15.25 5.375 C-16.51328125 5.30023438 -17.7765625 5.22546875 -19.078125 5.1484375 C-20.04234375 5.09945312 -21.0065625 5.05046875 -22 5 C-21.67 4.01 -21.34 3.02 -21 2 C-13.90294338 0.65504172 -7.2274605 -0.24091535 0 0 Z " fill="#393F3C" transform="translate(343,156)"/>
<path d="M0 0 C2.6985972 0.94450902 3.8982611 1.51454268 5.5 3.875 C6 6.375 6 6.375 5.5 8.875 C3.03351823 10.93040148 1.56512093 11.96629608 -1.6875 11.6875 C-3.5 10.875 -3.5 10.875 -5.5 8.875 C-5.83661952 5.7107765 -5.99943411 3.68986618 -4.3125 0.9375 C-2.5 -0.125 -2.5 -0.125 0 0 Z " fill="#8B6EA2" transform="translate(221.5,217.125)"/>
<path d="M0 0 C0.66 0.33 1.32 0.66 2 1 C1.360625 1.53625 0.72125 2.0725 0.0625 2.625 C-2.38529404 5.44367193 -2.66714612 7.33860732 -3 11 C-2.01 11 -1.02 11 0 11 C0 11.66 0 12.32 0 13 C-5.445 15.475 -5.445 15.475 -11 18 C-11.625 15.125 -11.625 15.125 -12 12 C-11.34 11.34 -10.68 10.68 -10 10 C-10 8.68 -10 7.36 -10 6 C-7.8828125 4.26171875 -7.8828125 4.26171875 -5.125 2.6875 C-4.22007812 2.15511719 -3.31515625 1.62273437 -2.3828125 1.07421875 C-1.59648437 0.71972656 -0.81015625 0.36523438 0 0 Z " fill="#896D9C" transform="translate(411,398)"/>
<path d="M0 0 C1.7325 0.1546875 1.7325 0.1546875 3.5 0.3125 C5.64762184 3.53393276 6.061068 4.5720467 5.5 8.3125 C3.8125 10.1875 3.8125 10.1875 1.5 11.3125 C-1.87036311 11.07175978 -3.08798021 10.72451979 -5.5 8.3125 C-5.75 5.3125 -5.75 5.3125 -5.5 2.3125 C-3.5 0.3125 -3.5 0.3125 0 0 Z " fill="#132523" transform="translate(206.5,239.6875)"/>
<path d="M0 0 C2.20770805 -0.08165496 4.41630425 -0.13948488 6.625 -0.1875 C7.85476563 -0.22230469 9.08453125 -0.25710937 10.3515625 -0.29296875 C14.26407664 0.0212053 16.64070218 1.03093467 20 3 C17.00529631 6.09130703 14.73756575 7.34319359 10.5 7.5625 C6.79823539 7.40825981 6.07065884 7.05593825 3 4.625 C1 2 1 2 0 0 Z " fill="#F592B2" transform="translate(321,161)"/>
<path d="M0 0 C0 2.31 0 4.62 0 7 C-4.67201205 8.20568053 -9.21496292 8.09382426 -14 8 C-14.33 6.02 -14.66 4.04 -15 2 C-12.87528825 1.6648342 -10.75022095 1.33192171 -8.625 1 C-7.44164062 0.814375 -6.25828125 0.62875 -5.0390625 0.4375 C-2 0 -2 0 0 0 Z " fill="#FBC1C2" transform="translate(362,139)"/>
<path d="M0 0 C0.99 0 1.98 0 3 0 C3.62777573 1.99913047 4.25207153 3.99935382 4.875 6 C5.431875 7.77310547 5.431875 7.77310547 6 9.58203125 C6.79548194 12.30096367 7.38163495 14.90718236 7.875 17.6875 C8.24625 18.780625 8.6175 19.87375 9 21 C11.99428144 22.61147442 11.99428144 22.61147442 15 23 C15 23.99 15 24.98 15 26 C8.50005983 25.3867981 8.50005983 25.3867981 6.35620117 23.72851562 C4.77756052 21.71649478 4.2428371 20.12944904 3.61328125 17.65625 C3.39736328 16.82222656 3.18144531 15.98820312 2.95898438 15.12890625 C2.63897461 13.82759766 2.63897461 13.82759766 2.3125 12.5 C1.97508789 11.19869141 1.97508789 11.19869141 1.63085938 9.87109375 C0 3.45671068 0 3.45671068 0 0 Z " fill="#7BD3EB" transform="translate(366,251)"/>
<path d="M0 0 C5.719197 0.48894689 9.76692879 2.08887401 14.75 4.875 C15.40871094 5.22691406 16.06742187 5.57882813 16.74609375 5.94140625 C19.87735445 7.64994403 22.68325137 9.25102215 25 12 C24.34 12 23.68 12 23 12 C22.34 13.32 21.68 14.64 21 16 C20.32195312 15.41992188 19.64390625 14.83984375 18.9453125 14.2421875 C13.46739167 9.64437584 8.04502324 5.58974862 1.80078125 2.09375 C1.20652344 1.7328125 0.61226563 1.371875 0 1 C0 0.67 0 0.34 0 0 Z " fill="#876C9D" transform="translate(379,152)"/>
<path d="M0 0 C2.49710982 0.34442894 3.82154665 0.84703999 5.75 2.5 C7.60433607 6.20867213 7.86829499 9.94567773 7 14 C4.97265625 16.78515625 4.97265625 16.78515625 3 19 C2.49356447 16.77228658 1.9951038 14.54275924 1.5 12.3125 C1.2215625 11.07113281 0.943125 9.82976562 0.65625 8.55078125 C0.10645874 5.57601782 -0.13795705 3.00631398 0 0 Z " fill="#FAB3B7" transform="translate(361,116)"/>
<path d="M0 0 C1.32 0 2.64 0 4 0 C4 6.93 4 13.86 4 21 C2.68 21 1.36 21 0 21 C0 14.07 0 7.14 0 0 Z " fill="#FDC2C3" transform="translate(292,321)"/>
<path d="M0 0 C4.50343911 0.5112012 6.87525426 2.17521358 10.3125 5.0625 C11.19550781 5.79597656 12.07851563 6.52945313 12.98828125 7.28515625 C13.65214844 7.85105469 14.31601562 8.41695312 15 9 C9.77005507 11.80175621 9.77005507 11.80175621 7 12 C4.82421875 10.48828125 4.82421875 10.48828125 2.6875 8.3125 C1.96949219 7.60738281 1.25148438 6.90226563 0.51171875 6.17578125 C-1 4 -1 4 -0.73046875 1.73046875 C-0.48941406 1.15941406 -0.24835938 0.58835938 0 0 Z " fill="#876C9C" transform="translate(402,164)"/>
<path d="M0 0 C2.96466807 1.10246809 5.77194461 2.36763597 8.56640625 3.83984375 C16.56493188 8.05085575 24.01648947 11.36663445 33 13 C33 13.99 33 14.98 33 16 C27.45400356 15.45839879 23.05092831 13.99525173 18 11.6875 C16.99066406 11.24374023 16.99066406 11.24374023 15.9609375 10.79101562 C11.47057787 8.78422363 7.235872 6.49850262 3 4 C2.34 4.99 1.68 5.98 1 7 C0.67 4.69 0.34 2.38 0 0 Z " fill="#EDEFF0" transform="translate(302,254)"/>
<path d="M0 0 C0.33776684 1.7491497 0.67003671 3.49936145 1 5.25 C1.185625 6.22453125 1.37125 7.1990625 1.5625 8.203125 C2 11 2 11 2 15 C-1.37577742 14.3971826 -3.67461607 13.57453221 -6 11 C-6.69449034 7.34438603 -6.75754899 4.15436037 -4.6875 1 C-3 0 -3 0 0 0 Z " fill="#FBC8CA" transform="translate(274,133)"/>
<path d="M0 0 C1.8125 0.0625 1.8125 0.0625 4 1 C6.93355173 4.66693966 8 6.23130534 8 11 C5.36 11.33 2.72 11.66 0 12 C-0.19401633 10.18818595 -0.38004375 8.37551468 -0.5625 6.5625 C-0.66691406 5.55316406 -0.77132813 4.54382813 -0.87890625 3.50390625 C-0.91886719 2.67761719 -0.95882813 1.85132813 -1 1 C-0.67 0.67 -0.34 0.34 0 0 Z " fill="#FCEFED" transform="translate(332,136)"/>
<path d="M0 0 C3.5 1.5 3.5 1.5 6 3 C5.67 3.99 5.34 4.98 5 6 C4.14921875 5.75443359 4.14921875 5.75443359 3.28125 5.50390625 C0.93372741 4.98536102 -1.10065739 4.90052383 -3.5 4.9375 C-4.2528125 4.94652344 -5.005625 4.95554687 -5.78125 4.96484375 C-6.87953125 4.98224609 -6.87953125 4.98224609 -8 5 C-9.32 5 -10.64 5 -12 5 C-9.43892002 -0.67096281 -5.91102004 -0.65678 0 0 Z " fill="#2C3631" transform="translate(314,108)"/>
<path d="M0 0 C-0.99 2.97 -1.98 5.94 -3 9 C-6.92600963 7.03699519 -9.09649559 5.22611601 -12 2 C-12 1.34 -12 0.68 -12 0 C-10.56359829 -0.19573608 -9.12580496 -0.38127816 -7.6875 -0.5625 C-6.88699219 -0.66691406 -6.08648437 -0.77132812 -5.26171875 -0.87890625 C-3 -1 -3 -1 0 0 Z " fill="#B5E9F5" transform="translate(342,249)"/>
<path d="M0 0 C2 0 2 0 4.6875 2.1875 C5.450625 3.115625 6.21375 4.04375 7 5 C6.67 6.65 6.34 8.3 6 10 C1.38 10 -3.24 10 -8 10 C-7.67 9.01 -7.34 8.02 -7 7 C-5.35 7 -3.7 7 -2 7 C-1.34 4.69 -0.68 2.38 0 0 Z " fill="#BCEFFA" transform="translate(337,237)"/>
<path d="M0 0 C0.66 0.33 1.32 0.66 2 1 C2 1.99 2 2.98 2 4 C2.5775 3.773125 3.155 3.54625 3.75 3.3125 C6 3 6 3 8.140625 4.48046875 C8.75421875 4.98191406 9.3678125 5.48335938 10 6 C8.54634731 7.17249353 7.08692581 8.33783816 5.625 9.5 C4.81289063 10.1496875 4.00078125 10.799375 3.1640625 11.46875 C1 13 1 13 -1 13 C-1 12.01 -1 11.02 -1 10 C-0.34 10 0.32 10 1 10 C1 9.01 1 8.02 1 7 C0.38125 6.690625 -0.2375 6.38125 -0.875 6.0625 C-2.25 5.375 -3.625 4.6875 -5 4 C-3.35 2.68 -1.7 1.36 0 0 Z " fill="#886C9B" transform="translate(420,392)"/>
<path d="M0 0 C1.134375 0.020625 2.26875 0.04125 3.4375 0.0625 C1.4575 1.0525 1.4575 1.0525 -0.5625 2.0625 C-0.170625 3.073125 0.22125 4.08375 0.625 5.125 C1.94961438 9.60128308 0.56878391 12.04584956 -1.5625 16.0625 C-2.5525 15.7325 -3.5425 15.4025 -4.5625 15.0625 C-4.58935412 12.75006208 -4.60882841 10.4375373 -4.625 8.125 C-4.63660156 6.83722656 -4.64820313 5.54945312 -4.66015625 4.22265625 C-4.53212333 0.07951094 -4.53212333 0.07951094 0 0 Z " fill="#78598E" transform="translate(215.5625,92.9375)"/>
<path d="M0 0 C1.32 0 2.64 0 4 0 C7.44419134 13.6332574 7.44419134 13.6332574 7 20 C6.34 20.33 5.68 20.66 5 21 C1.95122754 14.46691615 1.11563549 7.06569147 0 0 Z " fill="#7ED4EC" transform="translate(384,246)"/>
<path d="M0 0 C4.73672286 1.78744259 9.17824038 4.08346033 13.65234375 6.43359375 C17.72403712 8.51865871 21.59511058 9.87342982 26 11 C25.67 12.32 25.34 13.64 25 15 C20.30313663 13.60169717 16.16822348 11.62142651 11.9375 9.1875 C11.0393457 8.6915332 11.0393457 8.6915332 10.12304688 8.18554688 C6.0798678 5.87832202 3.12323031 3.3830075 0 0 Z " fill="#F0BCC0" transform="translate(312,210)"/>
<path d="M0 0 C0.33 0 0.66 0 1 0 C2.56366219 5.54389323 1.43797701 9.92088123 -1 15 C-1.98870164 16.01117213 -2.98783098 17.01231894 -4 18 C-4.33 18.99 -4.66 19.98 -5 21 C-4.34 21.33 -3.68 21.66 -3 22 C-3.66 22 -4.32 22 -5 22 C-5.33 23.32 -5.66 24.64 -6 26 C-6 22.7 -6 19.4 -6 16 C-6.66 15.67 -7.32 15.34 -8 15 C-7.01 14.67 -6.02 14.34 -5 14 C-5 12.35 -5 10.7 -5 9 C-4.34 9.33 -3.68 9.66 -3 10 C-0.70366176 6.55549263 -0.45983515 4.06187717 0 0 Z " fill="#F7DADB" transform="translate(368,123)"/>
<path d="M0 0 C6 1 6 1 7.87036133 2.31176758 C9.28588155 4.42724679 9.28249815 5.49343143 9.07421875 8.01171875 C8.99204102 9.14770508 8.99204102 9.14770508 8.90820312 10.30664062 C8.83537109 11.09232422 8.76253906 11.87800781 8.6875 12.6875 C8.62626953 13.48478516 8.56503906 14.28207031 8.50195312 15.10351562 C8.34886031 17.07016953 8.17629291 19.03528989 8 21 C7.67 21 7.34 21 7 21 C7 16.38 7 11.76 7 7 C6.34 7 5.68 7 5 7 C4.67 5.68 4.34 4.36 4 3 C2.78306124 5.43387753 2.68040104 7.41838846 2.4375 10.125 C2.31181641 11.49011719 2.31181641 11.49011719 2.18359375 12.8828125 C2.12300781 13.58148438 2.06242187 14.28015625 2 15 C1.67 15 1.34 15 1 15 C0.67 10.05 0.34 5.1 0 0 Z " fill="#83D6EE" transform="translate(340,199)"/>
<path d="M0 0 C2.60208598 2.60208598 3.24088781 4.54439038 3.3125 8.125 C3 12 3 12 1 14 C0.34 12.68 -0.32 11.36 -1 10 C-1.99 10.99 -2.98 11.98 -4 13 C-4.33 11.35 -4.66 9.7 -5 8 C-4.34 8 -3.68 8 -3 8 C-3.33 6.68 -3.66 5.36 -4 4 C-3.01 4 -2.02 4 -1 4 C-0.67 2.68 -0.34 1.36 0 0 Z " fill="#6CCDE6" transform="translate(338,224)"/>
<path d="M0 0 C0.625 1.8125 0.625 1.8125 1 4 C0.01 5.485 0.01 5.485 -1 7 C-3.5625 7.25 -3.5625 7.25 -6 7 C-7 6 -7 6 -7.0625 2.9375 C-7.041875 1.968125 -7.02125 0.99875 -7 0 C-4.3333581 -1.33332095 -2.83319697 -0.67102033 0 0 Z " fill="#FCFAF1" transform="translate(296,256)"/>
<path d="M0 0 C0.66 0.66 1.32 1.32 2 2 C1.67 2.66 1.34 3.32 1 4 C1.66 4 2.32 4 3 4 C3 4.99 3 5.98 3 7 C2.34 7 1.68 7 1 7 C1 7.66 1 8.32 1 9 C0.01 9.495 0.01 9.495 -1 10 C-1.46523063 11.89533342 -1.46523063 11.89533342 -1.625 14.0625 C-1.74875 15.361875 -1.8725 16.66125 -2 18 C-2.33 18 -2.66 18 -3 18 C-3 15.36 -3 12.72 -3 10 C-3.66 10 -4.32 10 -5 10 C-3.14285714 2.42857143 -3.14285714 2.42857143 0 0 Z " fill="#78588F" transform="translate(185,75)"/>
<path d="M0 0 C10.89 0 21.78 0 33 0 C34 4 34 4 33.0625 6.25 C32.5365625 7.11625 32.5365625 7.11625 32 8 C31.67 5.69 31.34 3.38 31 1 C20.77 1 10.54 1 0 1 C0 0.67 0 0.34 0 0 Z " fill="#FBD38F" transform="translate(443,200)"/>
<path d="M0 0 C-3 2 -3 2 -5 2 C-5 2.66 -5 3.32 -5 4 C-6.5 5.625 -6.5 5.625 -8 7 C-7.34 7.33 -6.68 7.66 -6 8 C-6.66 8 -7.32 8 -8 8 C-8.66 9.98 -9.32 11.96 -10 14 C-11.18914114 10.28393395 -11.42281576 6.87581117 -11 3 C-7.53883698 -0.15576629 -4.55823928 -0.31801669 0 0 Z " fill="#F9F6EB" transform="translate(380,240)"/>
<path d="M0 0 C0.99 0 1.98 0 3 0 C3.70005949 2.07914664 4.38462244 4.16351586 5.0625 6.25 C5.44535156 7.41015625 5.82820313 8.5703125 6.22265625 9.765625 C6.95211763 12.80077085 7.11889082 14.15703213 6 17 C5.67 16.01 5.34 15.02 5 14 C4.01 14.495 4.01 14.495 3 15 C2.49564306 13.0636296 1.99666126 11.12585854 1.5 9.1875 C1.2215625 8.10855469 0.943125 7.02960938 0.65625 5.91796875 C0 3 0 3 0 0 Z " fill="#89D8F0" transform="translate(366,251)"/>
<path d="M0 0 C1.8871875 0.061875 1.8871875 0.061875 3.8125 0.125 C4.1425 1.115 4.4725 2.105 4.8125 3.125 C-4.59752278 5.23661731 -4.59752278 5.23661731 -9.1875 6.125 C-7.20938974 1.56013016 -5.01716504 -0.16449721 0 0 Z " fill="#2A342E" transform="translate(351.1875,104.875)"/>
<path d="M0 0 C2.92090003 1.30936898 4.75619462 2.75619462 7 5 C7.99 5.33 8.98 5.66 10 6 C11.1875 8.0625 11.1875 8.0625 12 10 C8.8125 10.5 8.8125 10.5 5 10 C2.44648935 7.23158994 0 3.86112137 0 0 Z " fill="#EEEFF0" transform="translate(284,239)"/>
<path d="M0 0 C2.31 0 4.62 0 7 0 C6.67 1.98 6.34 3.96 6 6 C3 7 3 7 -0.1875 5.5625 C-1.115625 5.046875 -2.04375 4.53125 -3 4 C-2.01 3.67 -1.02 3.34 0 3 C0 2.01 0 1.02 0 0 Z " fill="#11241E" transform="translate(336,157)"/>
<path d="M0 0 C2.475 0.495 2.475 0.495 5 1 C5 3.97 5 6.94 5 10 C3.68 10 2.36 10 1 10 C0.67 6.7 0.34 3.4 0 0 Z " fill="#1D2C27" transform="translate(308,125)"/>
<path d="M0 0 C0.94875 0.04125 1.8975 0.0825 2.875 0.125 C2.875 1.115 2.875 2.105 2.875 3.125 C3.205 3.785 3.535 4.445 3.875 5.125 C2.740625 5.41375 1.60625 5.7025 0.4375 6 C-0.738125 6.37125 -1.91375 6.7425 -3.125 7.125 C-3.455 7.785 -3.785 8.445 -4.125 9.125 C-4.75 5.75 -4.75 5.75 -5.125 2.125 C-3.125 0.125 -3.125 0.125 0 0 Z " fill="#FBC872" transform="translate(415.125,139.875)"/>
<path d="M0 0 C1.98 0.495 1.98 0.495 4 1 C4 3.97 4 6.94 4 10 C2.68 10 1.36 10 0 10 C-0.19412181 8.52168779 -0.38012131 7.04230684 -0.5625 5.5625 C-0.66691406 4.73878906 -0.77132813 3.91507812 -0.87890625 3.06640625 C-0.91886719 2.38449219 -0.95882813 1.70257813 -1 1 C-0.67 0.67 -0.34 0.34 0 0 Z " fill="#142823" transform="translate(348,120)"/>
<path d="M0 0 C1.4540625 0.0309375 1.4540625 0.0309375 2.9375 0.0625 C2.9375 0.7225 2.9375 1.3825 2.9375 2.0625 C1.6175 2.0625 0.2975 2.0625 -1.0625 2.0625 C-1.0625 5.3625 -1.0625 8.6625 -1.0625 12.0625 C-2.0525 12.0625 -3.0425 12.0625 -4.0625 12.0625 C-4.08937279 10.25007948 -4.10883715 8.43754767 -4.125 6.625 C-4.13660156 5.61566406 -4.14820313 4.60632813 -4.16015625 3.56640625 C-4.01596662 -0.13061575 -3.76355726 0.07680729 0 0 Z " fill="#D2CED6" transform="translate(187.0625,83.9375)"/>
<path d="M0 0 C2 1 2 1 4 4 C4.125 6.6875 4.125 6.6875 4 9 C0.62496331 7.8141763 -1.64722731 6.72426311 -4 4 C-3.67 3.01 -3.34 2.02 -3 1 C-2.01 0.67 -1.02 0.34 0 0 Z " fill="#86689A" transform="translate(260,403)"/>
<path d="M0 0 C4.875 0.875 4.875 0.875 6 2 C6.04063832 3.66617115 6.042721 5.33388095 6 7 C5.34 7 4.68 7 4 7 C4 7.99 4 8.98 4 10 C3.01 9.67 2.02 9.34 1 9 C1.33 7.68 1.66 6.36 2 5 C1.34 4.67 0.68 4.34 0 4 C-0.33 3.34 -0.66 2.68 -1 2 C-0.67 1.34 -0.34 0.68 0 0 Z " fill="#795990" transform="translate(262,402)"/>
<path d="M0 0 C1.67542976 0.28604898 3.34385343 0.61781233 5 1 C5 2.65 5 4.3 5 6 C2.625 6.625 2.625 6.625 0 7 C-0.66 6.34 -1.32 5.68 -2 5 C-1.46428571 1.46428571 -1.46428571 1.46428571 0 0 Z " fill="#8C709E" transform="translate(219,103)"/>
<path d="M0 0 C1.66611905 -0.042721 3.33382885 -0.04063832 5 0 C6 1 6 1 6.09765625 3.50390625 C6.08605469 4.51324219 6.07445312 5.52257812 6.0625 6.5625 C6.05347656 7.57441406 6.04445312 8.58632812 6.03515625 9.62890625 C6.02355469 10.41136719 6.01195312 11.19382812 6 12 C5.01 12 4.02 12 3 12 C3 8.7 3 5.4 3 2 C2.01 2 1.02 2 0 2 C0 1.34 0 0.68 0 0 Z " fill="#D2CDD6" transform="translate(196,84)"/>
<path d="M0 0 C0.33 0 0.66 0 1 0 C1 5.61 1 11.22 1 17 C-4 17 -4 17 -6.3125 15 C-6.869375 14.34 -7.42625 13.68 -8 13 C-5.36 13 -2.72 13 0 13 C0 8.71 0 4.42 0 0 Z " fill="#D7B095" transform="translate(299,181)"/>
<path d="M0 0 C2.62386487 3.06117568 3 3.73173127 3 8 C1.02 8.33 -0.96 8.66 -3 9 C-3.625 6.625 -3.625 6.625 -4 4 C-3.34 3.34 -2.68 2.68 -2 2 C-1.34 2.33 -0.68 2.66 0 3 C0 2.01 0 1.02 0 0 Z " fill="#FACB7D" transform="translate(385,238)"/>
<path d="M0 0 C0.33 0 0.66 0 1 0 C1.02715383 1.74991334 1.04646551 3.49994945 1.0625 5.25 C1.07410156 6.22453125 1.08570313 7.1990625 1.09765625 8.203125 C1.01086554 10.68881099 0.83358874 12.66595152 0 15 C-2.0625 16.75 -2.0625 16.75 -4 18 C-4.75 16.3125 -4.75 16.3125 -5 14 C-4.38125 13.278125 -3.7625 12.55625 -3.125 11.8125 C-0.25344796 8.01191642 -0.20273487 4.6527652 0 0 Z " fill="#FCD087" transform="translate(276,216)"/>
<path d="M0 0 C0.99 0.495 0.99 0.495 2 1 C2.33 1.99 2.66 2.98 3 4 C4.65 4 6.3 4 8 4 C8.33 4.99 8.66 5.98 9 7 C9.66 7.33 10.32 7.66 11 8 C3.5577342 8.48801743 3.5577342 8.48801743 1 6.25 C0 4 0 4 0 0 Z " fill="#FBD391" transform="translate(409,144)"/>
<path d="M0 0 C0 3.10551666 -0.5393715 4.35261084 -2 7 C-2.66 7 -3.32 7 -4 7 C-4.33 7.99 -4.66 8.98 -5 10 C-7.89558441 11.4477922 -9.74188938 12 -13 12 C-8.71 8.04 -4.42 4.08 0 0 Z " fill="#9E87AE" transform="translate(435,379)"/>
<path d="M0 0 C1.2065625 0.0309375 1.2065625 0.0309375 2.4375 0.0625 C2.480221 1.72861905 2.47813832 3.39632885 2.4375 5.0625 C1.4375 6.0625 1.4375 6.0625 -1.125 6.125 C-2.3315625 6.0940625 -2.3315625 6.0940625 -3.5625 6.0625 C-3.605221 4.39638095 -3.60313832 2.72867115 -3.5625 1.0625 C-2.5625 0.0625 -2.5625 0.0625 0 0 Z " fill="#EEA9AE" transform="translate(426.5625,349.9375)"/>
<path d="M0 0 C1.65 1.65 3.3 3.3 5 5 C2.69 6.32 0.38 7.64 -2 9 C-2.33 7.02 -2.66 5.04 -3 3 C-2.01 2.67 -1.02 2.34 0 2 C0 1.34 0 0.68 0 0 Z " fill="#10241E" transform="translate(268,121)"/>
<path d="M0 0 C1.134375 0.020625 2.26875 0.04125 3.4375 0.0625 C2.82472388 3.02425123 2.18377478 4.44308783 0.4375 7.0625 C-1.2125 5.0825 -2.8625 3.1025 -4.5625 1.0625 C-3.5625 0.0625 -3.5625 0.0625 0 0 Z " fill="#C3F4FB" transform="translate(336.5625,248.9375)"/>
<path d="M0 0 C0.66 0.33 1.32 0.66 2 1 C1.54625 1.391875 1.0925 1.78375 0.625 2.1875 C-1.17646038 3.94685483 -1.17646038 3.94685483 -1.8125 6.5625 C-3 9 -3 9 -6.125 10.3125 C-7.07375 10.539375 -8.0225 10.76625 -9 11 C-6.62245212 6.50907623 -3.6393937 3.47764287 0 0 Z " fill="#8A709E" transform="translate(184,74)"/>
<path d="M0 0 C2.3125 -0.3125 2.3125 -0.3125 5 0 C6.8125 2.5 6.8125 2.5 8 5 C7.01 6.485 7.01 6.485 6 8 C5.34 7.01 4.68 6.02 4 5 C1.43717258 4.27034634 1.43717258 4.27034634 -1 4 C-0.67 2.68 -0.34 1.36 0 0 Z " fill="#9077A2" transform="translate(450,362)"/>
<path d="M0 0 C1.32 0 2.64 0 4 0 C4.99 2.31 5.98 4.62 7 7 C4.625 7.1875 4.625 7.1875 2 7 C0 4 0 4 0 0 Z " fill="#BDBDBD" transform="translate(361,344)"/>
<path d="M0 0 C0.33 0 0.66 0 1 0 C1.33 1.98 1.66 3.96 2 6 C-1 8 -1 8 -4.125 7.75 C-5.07375 7.5025 -6.0225 7.255 -7 7 C-7.33 6.34 -7.66 5.68 -8 5 C-7.34 4.34 -6.68 3.68 -6 3 C-3.375 3.375 -3.375 3.375 -1 4 C-0.67 2.68 -0.34 1.36 0 0 Z " fill="#E1D9E5" transform="translate(224,105)"/>
<path d="M0 0 C2.97 0.495 2.97 0.495 6 1 C5.01 1.33 4.02 1.66 3 2 C2.67 6.29 2.34 10.58 2 15 C1.67 15 1.34 15 1 15 C0.67 10.05 0.34 5.1 0 0 Z " fill="#91C9DA" transform="translate(340,199)"/>
<path d="M0 0 C1.134375 0.020625 2.26875 0.04125 3.4375 0.0625 C2.7775 0.7225 2.1175 1.3825 1.4375 2.0625 C0.1175 2.0625 -1.2025 2.0625 -2.5625 2.0625 C-2.8925 6.3525 -3.2225 10.6425 -3.5625 15.0625 C-3.8925 15.0625 -4.2225 15.0625 -4.5625 15.0625 C-4.58935412 12.75006208 -4.60882841 10.4375373 -4.625 8.125 C-4.63660156 6.83722656 -4.64820313 5.54945312 -4.66015625 4.22265625 C-4.53212333 0.07951094 -4.53212333 0.07951094 0 0 Z " fill="#6F5686" transform="translate(215.5625,92.9375)"/>
<path d="M0 0 C2.31 0.33 4.62 0.66 7 1 C5.1875 3.5 5.1875 3.5 3 6 C2.01 6 1.02 6 0 6 C-1.125 2.25 -1.125 2.25 0 0 Z " fill="#0F231D" transform="translate(349,81)"/>
<path d="M0 0 C1.65 0.33 3.3 0.66 5 1 C5 2.32 5 3.64 5 5 C3.68 5.33 2.36 5.66 1 6 C-0.0625 4.125 -0.0625 4.125 -1 2 C-0.67 1.34 -0.34 0.68 0 0 Z " fill="#ECF6F7" transform="translate(329,232)"/>
<path d="M0 0 C0.66 0.33 1.32 0.66 2 1 C1.45773019 4.79588866 -0.20127563 6.47211993 -3 9 C-3 8.34 -3 7.68 -3 7 C-3.66 7 -4.32 7 -5 7 C-3.88820837 3.66462511 -2.52588702 2.36292656 0 0 Z " fill="#886C9C" transform="translate(432,370)"/>
<path d="M0 0 C0.66 0 1.32 0 2 0 C1.42531075 3.87915244 -0.37884447 6.14756605 -3 9 C-3.99 9.33 -4.98 9.66 -6 10 C-4.63312778 6.01328937 -2.84804907 3.11505367 0 0 Z " fill="#9AA7CF" transform="translate(189,187)"/>
<path d="M0 0 C2.64 0.66 5.28 1.32 8 2 C6.35 3.65 4.7 5.3 3 7 C2.01 4.69 1.02 2.38 0 0 Z " fill="#F4F0EF" transform="translate(367,211)"/>
<path d="M0 0 C0.99 0 1.98 0 3 0 C3.33 2.31 3.66 4.62 4 7 C3.01 7.66 2.02 8.32 1 9 C0 8 0 8 -0.09765625 6.15234375 C-0.06510417 4.1015625 -0.03255208 2.05078125 0 0 Z " fill="#FAFAFA" transform="translate(183,96)"/>
<path d="M0 0 C0.33 0 0.66 0 1 0 C1 1.98 1 3.96 1 6 C2.65 6 4.3 6 6 6 C5 8 5 8 3.15234375 8.6328125 C2.05599609 8.87644531 2.05599609 8.87644531 0.9375 9.125 C0.20402344 9.29257812 -0.52945312 9.46015625 -1.28515625 9.6328125 C-1.85105469 9.75398438 -2.41695313 9.87515625 -3 10 C-3 9.01 -3 8.02 -3 7 C-2.01 7 -1.02 7 0 7 C0 4.69 0 2.38 0 0 Z " fill="#DED6E2" transform="translate(390,401)"/>
<path d="M0 0 C1 2 2 4 3 6 C2.0625 8.125 2.0625 8.125 1 10 C0.67 9.67 0.34 9.34 0 9 C-0.66 9.66 -1.32 10.32 -2 11 C-1.125 3.375 -1.125 3.375 0 0 Z " fill="#70BBE7" transform="translate(474,171)"/>
<path d="M0 0 C-0.33 1.65 -0.66 3.3 -1 5 C-2.65 5.33 -4.3 5.66 -6 6 C-6 3 -6 3 -4.6875 1.3125 C-3 0 -3 0 0 0 Z " fill="#8393C6" transform="translate(207,173)"/>
<path d="M0 0 C0.99 0.33 1.98 0.66 3 1 C2.34 1 1.68 1 1 1 C1 1.66 1 2.32 1 3 C1.99 2.67 2.98 2.34 4 2 C4 2.99 4 3.98 4 5 C4.94978897 7.15028304 4.94978897 7.15028304 6 9 C3.15616877 7.7251791 0.86245982 6.54862922 -1 4 C-0.6875 1.8125 -0.6875 1.8125 0 0 Z " fill="#7C5E92" transform="translate(402,164)"/>
<path d="M0 0 C4.55737263 0.43820891 7.57653445 0.85041169 11 4 C10.34 4 9.68 4 9 4 C8.67 4.66 8.34 5.32 8 6 C6.66402348 5.19185349 5.331275 4.37836819 4 3.5625 C3.2575 3.11003906 2.515 2.65757812 1.75 2.19140625 C1.1725 1.79824219 0.595 1.40507812 0 1 C0 0.67 0 0.34 0 0 Z " fill="#8C75A3" transform="translate(379,152)"/>
<path d="M0 0 C0 0.66 0 1.32 0 2 C-3.47325181 3.1577506 -6.36067448 3.06866652 -10 3 C-10 2.34 -10 1.68 -10 1 C-6.59437148 0.22157062 -3.49234244 -0.09978121 0 0 Z " fill="#5D9CC4" transform="translate(342,246)"/>
<path d="M0 0 C2.9375 0.75 2.9375 0.75 6 2 C6.875 4.125 6.875 4.125 7 6 C3.75728494 5.4409112 2.06942576 4.5867822 0 2 C0 1.34 0 0.68 0 0 Z " fill="#65C5DB" transform="translate(321,240)"/>
<path d="M0 0 C0.99 0.33 1.98 0.66 3 1 C3.1953125 7.0546875 3.1953125 7.0546875 3 9 C2.34 9.66 1.68 10.32 1 11 C-0.17571451 7.32589215 -0.07366746 3.83070817 0 0 Z " fill="#5FBFD6" transform="translate(338,227)"/>
<path d="M0 0 C1.65 0 3.3 0 5 0 C5.66 1.32 6.32 2.64 7 4 C5.35 4 3.7 4 2 4 C1.34 2.68 0.68 1.36 0 0 Z " fill="#F7C370" transform="translate(288,195)"/>
<path d="M0 0 C0.66 0.33 1.32 0.66 2 1 C0.8125 3.9375 0.8125 3.9375 -1 7 C-3.6875 7.875 -3.6875 7.875 -6 8 C-4.02 5.36 -2.04 2.72 0 0 Z " fill="#9981A9" transform="translate(224,180)"/>
<path d="M0 0 C1.32 0 2.64 0 4 0 C3.3125 1.9375 3.3125 1.9375 2 4 C-0.625 4.75 -0.625 4.75 -3 5 C-1.125 1.125 -1.125 1.125 0 0 Z " fill="#172823" transform="translate(345,106)"/>
<path d="M0 0 C-0.66 0 -1.32 0 -2 0 C-2 0.66 -2 1.32 -2 2 C-6.29 2 -10.58 2 -15 2 C-15 1.67 -15 1.34 -15 1 C-13.25215171 0.63536268 -11.50159498 0.2836922 -9.75 -0.0625 C-8.28820312 -0.35833984 -8.28820312 -0.35833984 -6.796875 -0.66015625 C-4.131881 -0.98397535 -2.51128277 -0.85503199 0 0 Z " fill="#BF9090" transform="translate(319,92)"/>
<path d="M0 0 C1.32 0 2.64 0 4 0 C5.33333333 2 6.66666667 4 8 6 C4.65750371 5.40312566 2.53563658 4.26396123 0 2 C0 1.34 0 0.68 0 0 Z " fill="#7F6297" transform="translate(388,156)"/>
<path d="M0 0 C2.31 0.33 4.62 0.66 7 1 C7 1.99 7 2.98 7 4 C6.34 4.66 5.68 5.32 5 6 C4.01 5.01 3.02 4.02 2 3 C2.33 2.67 2.66 2.34 3 2 C2.01 1.34 1.02 0.68 0 0 Z " fill="#FCD392" transform="translate(414,139)"/>
<path d="M0 0 C2.97 0 5.94 0 9 0 C6.06171403 2.50298434 3.82097239 3.46930939 0 4 C0 2.66666667 0 1.33333333 0 0 Z " fill="#9A83AB" transform="translate(213,130)"/>
<path d="M0 0 C2.4375 1.1875 2.4375 1.1875 3.4375 3.1875 C2.81875 3.331875 2.2 3.47625 1.5625 3.625 C-0.59508322 4.11902225 -0.59508322 4.11902225 -2.5625 5.1875 C-3.2225 3.5375 -3.8825 1.8875 -4.5625 0.1875 C-2.5625 -0.8125 -2.5625 -0.8125 0 0 Z " fill="#9074A3" transform="translate(222.5625,73.8125)"/>
<path d="M0 0 C0.99 0 1.98 0 3 0 C3.625 2.875 3.625 2.875 4 6 C3.34 6.66 2.68 7.32 2 8 C0.74335022 5.09399739 0 3.20395416 0 0 Z " fill="#5FAFD8" transform="translate(366,251)"/>
<path d="M0 0 C1.32 0 2.64 0 4 0 C4 1.65 4 3.3 4 5 C3.01 5.33 2.02 5.66 1 6 C0.67 4.02 0.34 2.04 0 0 Z " fill="#70B0D3" transform="translate(384,246)"/>
<path d="M0 0 C0.33 0 0.66 0 1 0 C1.33 1.98 1.66 3.96 2 6 C1.34 6 0.68 6 0 6 C-0.66 7.32 -1.32 8.64 -2 10 C-2.66 8.68 -3.32 7.36 -4 6 C-3.525625 5.566875 -3.05125 5.13375 -2.5625 4.6875 C-0.76313043 2.97690387 -0.76313043 2.97690387 0 0 Z " fill="#71CEE8" transform="translate(337,231)"/>
<path d="M0 0 C1.98 1.65 3.96 3.3 6 5 C5.67 5.99 5.34 6.98 5 8 C2.21611025 6.29374499 1.14615794 5.52373261 0.25 2.3125 C0.1675 1.549375 0.085 0.78625 0 0 Z " fill="#A48DB3" transform="translate(422,178)"/>
<path d="M0 0 C2.31 0.33 4.62 0.66 7 1 C6.67 1.99 6.34 2.98 6 4 C4.125 3.6875 4.125 3.6875 2 3 C1.34 2.01 0.68 1.02 0 0 Z " fill="#EC8DAB" transform="translate(321,161)"/>
<path d="M0 0 C0.33 0 0.66 0 1 0 C0.74438677 2.3431213 0.40729228 4.67843403 0 7 C-0.99 7.495 -0.99 7.495 -2 8 C-2.33 6.35 -2.66 4.7 -3 3 C-2.01 2.67 -1.02 2.34 0 2 C0 1.34 0 0.68 0 0 Z " fill="#FBD490" transform="translate(422,143)"/>
<path d="M0 0 C1.32 0.33 2.64 0.66 4 1 C3.67 2.65 3.34 4.3 3 6 C2.01 6 1.02 6 0 6 C0 4.02 0 2.04 0 0 Z " fill="#26332E" transform="translate(308,125)"/>
<path d="M0 0 C0.66 0.33 1.32 0.66 2 1 C1.67 2.65 1.34 4.3 1 6 C-1.97 5.505 -1.97 5.505 -5 5 C-3.35 3.35 -1.7 1.7 0 0 Z " fill="#937BA6" transform="translate(420,392)"/>
<path d="M0 0 C3.37462715 0.54723683 5.08235 1.0549 8 3 C7.01 3.33 6.02 3.66 5 4 C4.67 4.66 4.34 5.32 4 6 C2.68 4.02 1.36 2.04 0 0 Z " fill="#9278A4" transform="translate(209,366)"/>
<path d="M0 0 C2.91517292 1.07401108 4.77810176 1.77810176 7 4 C6.34 4 5.68 4 5 4 C4.67 4.99 4.34 5.98 4 7 C3.34 6.34 2.68 5.68 2 5 C2 4.34 2 3.68 2 3 C1.34 2.67 0.68 2.34 0 2 C0 1.34 0 0.68 0 0 Z " fill="#947DA8" transform="translate(392,157)"/>
<path d="M0 0 C1.98 0.66 3.96 1.32 6 2 C5.34 3.32 4.68 4.64 4 6 C2 5 2 5 0 3 C0 2.01 0 1.02 0 0 Z " fill="#8193C3" transform="translate(235,150)"/>
<path d="M0 0 C0.33 0 0.66 0 1 0 C1 2.31 1 4.62 1 7 C-0.32 7.33 -1.64 7.66 -3 8 C-3.33 7.01 -3.66 6.02 -4 5 C-2.68 5 -1.36 5 0 5 C0 3.35 0 1.7 0 0 Z " fill="#9F9E9A" transform="translate(352,125)"/>
<path d="M0 0 C0.66 1.32 1.32 2.64 2 4 C-0.31 4 -2.62 4 -5 4 C-4.67 3.01 -4.34 2.02 -4 1 C-2 0 -2 0 0 0 Z " fill="#F5F0E3" transform="translate(294,245)"/>
<path d="M0 0 C0.99 0.33 1.98 0.66 3 1 C2.01 2.98 1.02 4.96 0 7 C-0.66 5.68 -1.32 4.36 -2 3 C-1.34 2.67 -0.68 2.34 0 2 C0 1.34 0 0.68 0 0 Z " fill="#64C0D6" transform="translate(335,230)"/>
<path d="M0 0 C0 3.10551666 -0.5393715 4.35261084 -2 7 C-3.32 6.67 -4.64 6.34 -6 6 C-4.02 4.02 -2.04 2.04 0 0 Z " fill="#856597" transform="translate(352,175)"/>
<path d="M0 0 C2.31 0.66 4.62 1.32 7 2 C6.67 2.99 6.34 3.98 6 5 C5.34 5 4.68 5 4 5 C4 4.01 4 3.02 4 2 C2.35 2.33 0.7 2.66 -1 3 C-0.67 2.01 -0.34 1.02 0 0 Z " fill="#9EAAD0" transform="translate(365,145)"/>
<path d="M0 0 C2.0625 0.4375 2.0625 0.4375 4 1 C3.67 2.32 3.34 3.64 3 5 C2.34 4.34 1.68 3.68 1 3 C0.34 3.99 -0.32 4.98 -1 6 C-1.042721 4.33388095 -1.04063832 2.66617115 -1 1 C-0.67 0.67 -0.34 0.34 0 0 Z " fill="#39423C" transform="translate(348,120)"/>
<path d="M0 0 C0.66 0.99 1.32 1.98 2 3 C1.01 3.33 0.02 3.66 -1 4 C-1.33 6.31 -1.66 8.62 -2 11 C-2.33 11 -2.66 11 -3 11 C-2.25 3.375 -2.25 3.375 0 0 Z " fill="#65726E" transform="translate(261,93)"/>
</svg>
