<?xml version="1.0" encoding="UTF-8"?>
<svg version="1.1" xmlns="http://www.w3.org/2000/svg" width="217" height="46">
<path d="M0 0 C71.61 0 143.22 0 217 0 C217 15.18 217 30.36 217 46 C145.39 46 73.78 46 0 46 C0 30.82 0 15.64 0 0 Z " fill="#FCFDFD" transform="translate(0,0)"/>
<path d="M0 0 C0.99 0.33 1.98 0.66 3 1 C2.34 1 1.68 1 1 1 C1 1.66 1 2.32 1 3 C1.66 3 2.32 3 3 3 C3 3.66 3 4.32 3 5 C3.66 4.67 4.32 4.34 5 4 C5.33 3.01 5.66 2.02 6 1 C6.65226562 1.13277344 7.30453125 1.26554688 7.9765625 1.40234375 C12.6408287 2.34482822 17.29868454 3.25768703 22 4 C20.84826645 6.46800047 19.95216435 8.04783565 18 10 C15.375 10.125 15.375 10.125 13 10 C12.67 11.32 12.34 12.64 12 14 C11.34 13.67 10.68 13.34 10 13 C10 11.68 10 10.36 10 9 C10.99 8.67 11.98 8.34 13 8 C12.195625 7.690625 11.39125 7.38125 10.5625 7.0625 C8 6 8 6 7 5 C5.02 5.99 5.02 5.99 3 7 C3.33 8.32 3.66 9.64 4 11 C4.33 10.34 4.66 9.68 5 9 C5.66 9 6.32 9 7 9 C7.6875 11.3125 7.6875 11.3125 8 14 C7.505 14.433125 7.01 14.86625 6.5 15.3125 C4.77911208 16.86800144 4.77911208 16.86800144 5.01953125 18.9609375 C5.28557742 20.98288842 5.63808056 22.99299217 6 25 C5.01 25.33 4.02 25.66 3 26 C3.66 26.99 4.32 27.98 5 29 C4.625 31.6875 4.625 31.6875 4 34 C2.515 34.495 2.515 34.495 1 35 C-1 33 -1 33 -1.125 30.5 C-1.08375 29.675 -1.0425 28.85 -1 28 C-1 27.34 -1 26.68 -1 26 C-1.66 25.34 -2.32 24.68 -3 24 C-2.625 21.375 -2.625 21.375 -2 19 C-1.34 19.33 -0.68 19.66 0 20 C0 21.32 0 22.64 0 24 C0.66 22.68 1.32 21.36 2 20 C2 21.65 2 23.3 2 25 C2.66 24.67 3.32 24.34 4 24 C3.95231597 22.12119128 3.95231597 22.12119128 3 20 C1.03852126 18.61061923 -0.96166576 17.2739589 -3 16 C-3.33 15.34 -3.66 14.68 -4 14 C-5.65 14 -7.3 14 -9 14 C-9.33 12.68 -9.66 11.36 -10 10 C-11.11375 10.12375 -11.11375 10.12375 -12.25 10.25 C-15 10 -15 10 -17.3125 8.125 C-19 6 -19 6 -19 4 C-16.91952703 3.4678559 -14.83547707 2.94968214 -12.75 2.4375 C-11.58984375 2.14746094 -10.4296875 1.85742188 -9.234375 1.55859375 C-6.17663416 1.03050566 -4.87220572 1.21607229 -2 2 C-1.34 1.34 -0.68 0.68 0 0 Z " fill="#F1F4F0" transform="translate(28,4)"/>
<path d="M0 0 C0.99 0.33 1.98 0.66 3 1 C2.34 1 1.68 1 1 1 C1 1.66 1 2.32 1 3 C1.66 3 2.32 3 3 3 C3 3.66 3 4.32 3 5 C3.66 4.67 4.32 4.34 5 4 C5.33 3.01 5.66 2.02 6 1 C6.65226562 1.13277344 7.30453125 1.26554688 7.9765625 1.40234375 C12.6408287 2.34482822 17.29868454 3.25768703 22 4 C20.84826645 6.46800047 19.95216435 8.04783565 18 10 C15.375 10.125 15.375 10.125 13 10 C12.67 11.32 12.34 12.64 12 14 C11.34 13.67 10.68 13.34 10 13 C10 11.68 10 10.36 10 9 C10.99 8.67 11.98 8.34 13 8 C12.195625 7.690625 11.39125 7.38125 10.5625 7.0625 C8 6 8 6 7 5 C5.02 5.99 5.02 5.99 3 7 C3 10.3 3 13.6 3 17 C2.34 17 1.68 17 1 17 C0.67 11.39 0.34 5.78 0 0 Z " fill="#9D9D9D" transform="translate(28,4)"/>
<path d="M0 0 C0.66 0.33 1.32 0.66 2 1 C2 2.98 2 4.96 2 7 C3.32 7 4.64 7 6 7 C6.66 4.69 7.32 2.38 8 0 C8.66 0 9.32 0 10 0 C10.6875 2.3125 10.6875 2.3125 11 5 C10.505 5.433125 10.01 5.86625 9.5 6.3125 C7.77911208 7.86800144 7.77911208 7.86800144 8.01953125 9.9609375 C8.28557742 11.98288842 8.63808056 13.99299217 9 16 C8.01 16.33 7.02 16.66 6 17 C6.66 17.99 7.32 18.98 8 20 C7.625 22.6875 7.625 22.6875 7 25 C6.01 25.33 5.02 25.66 4 26 C2 24 2 24 1.875 21.5 C1.91625 20.675 1.9575 19.85 2 19 C2 18.34 2 17.68 2 17 C1.34 16.34 0.68 15.68 0 15 C0.375 12.375 0.375 12.375 1 10 C1.66 10.33 2.32 10.66 3 11 C3 12.32 3 13.64 3 15 C3.66 13.68 4.32 12.36 5 11 C5 12.65 5 14.3 5 16 C5.66 15.67 6.32 15.34 7 15 C6.95231597 13.12119128 6.95231597 13.12119128 6 11 C5.01 10.38125 4.02 9.7625 3 9.125 C0 7 0 7 -0.9375 3.8125 C-0.958125 2.884375 -0.97875 1.95625 -1 1 C-0.67 0.67 -0.34 0.34 0 0 Z " fill="#90D56F" transform="translate(25,13)"/>
<path d="M0 0 C1.670625 0.061875 1.670625 0.061875 3.375 0.125 C3.375 3.095 3.375 6.065 3.375 9.125 C0 9.25 0 9.25 -3.625 9.125 C-5.625 7.125 -5.625 7.125 -5.875 4.625 C-5.45054733 0.38047335 -4.12667778 0.14229923 0 0 Z " fill="#21274E" transform="translate(87.625,18.875)"/>
<path d="M0 0 C0.99 0 1.98 0 3 0 C3 1.32 3 2.64 3 4 C4.32 4 5.64 4 7 4 C7 2.68 7 1.36 7 0 C7.99 0 8.98 0 10 0 C10 3.63 10 7.26 10 11 C9.01 11 8.02 11 7 11 C7 9.35 7 7.7 7 6 C5.68 6 4.36 6 3 6 C3 7.65 3 9.3 3 11 C2.01 11 1.02 11 0 11 C0 7.37 0 3.74 0 0 Z " fill="#1F264D" transform="translate(59,17)"/>
<path d="M0 0 C1.25 2.5625 1.25 2.5625 2 5 C-1 4 -1 4 -3 1 C-3.70125 1.309375 -4.4025 1.61875 -5.125 1.9375 C-8.08936657 3.03302678 -10.87698108 3.56422992 -14 4 C-8.555 3.505 -8.555 3.505 -3 3 C-3.33 3.66 -3.66 4.32 -4 5 C-4.99 5.33 -5.98 5.66 -7 6 C-6.34 6.66 -5.68 7.32 -5 8 C-4.375 10.125 -4.375 10.125 -4 12 C-4.99 12 -5.98 12 -7 12 C-7.33 10.68 -7.66 9.36 -8 8 C-9.11375 8.12375 -9.11375 8.12375 -10.25 8.25 C-13 8 -13 8 -15.3125 6.125 C-17 4 -17 4 -17 2 C-14.91952703 1.4678559 -12.83547707 0.94968214 -10.75 0.4375 C-9.58984375 0.14746094 -8.4296875 -0.14257812 -7.234375 -0.44140625 C-4.28460436 -0.95084731 -2.69860713 -1.22201077 0 0 Z " fill="#4B4A4A" transform="translate(26,6)"/>
<path d="M0 0 C2.5625 0.1875 2.5625 0.1875 4.5625 2.1875 C4.8125 4.6875 4.8125 4.6875 4.5625 7.1875 C2.5625 9.1875 2.5625 9.1875 0.0625 9.4375 C-2.4375 9.1875 -2.4375 9.1875 -4.4375 7.1875 C-3.73338608 0.28718354 -3.73338608 0.28718354 0 0 Z " fill="#474C6C" transform="translate(140.4375,18.8125)"/>
<path d="M0 0 C0.66 1.32 1.32 2.64 2 4 C-0.31 3.67 -2.62 3.34 -5 3 C-5 4.32 -5 5.64 -5 7 C-2.69 7 -0.38 7 2 7 C1.67 7.99 1.34 8.98 1 10 C-5.42548263 11.33359073 -5.42548263 11.33359073 -7.9375 9.875 C-9.36066991 7.36352369 -9.42674516 5.84496772 -9 3 C-6.71619742 -0.67945972 -4.04424788 -0.26961653 0 0 Z " fill="#2D3358" transform="translate(132,17)"/>
<path d="M0 0 C0.99 0 1.98 0 3 0 C3.33 0.99 3.66 1.98 4 3 C5.65 3.33 7.3 3.66 9 4 C9 6.64 9 9.28 9 12 C8.34 12 7.68 12 7 12 C6.67 10.02 6.34 8.04 6 6 C5.34 6 4.68 6 4 6 C3.67 7.98 3.34 9.96 3 12 C2.01 12 1.02 12 0 12 C0 8.04 0 4.08 0 0 Z " fill="#2E3458" transform="translate(107,16)"/>
<path d="M0 0 C2.5 0.25 2.5 0.25 4.5 2.25 C4.5 3.24 4.5 4.23 4.5 5.25 C2.52 5.25 0.54 5.25 -1.5 5.25 C-1.5 5.91 -1.5 6.57 -1.5 7.25 C0.15 6.92 1.8 6.59 3.5 6.25 C3.17 7.24 2.84 8.23 2.5 9.25 C0.125 9.375 0.125 9.375 -2.5 9.25 C-4.5 7.25 -4.5 7.25 -4.75 4.75 C-4.40058445 1.25584452 -3.49415548 0.34941555 0 0 Z " fill="#1E244B" transform="translate(175.5,18.75)"/>
<path d="M0 0 C2.5 0.25 2.5 0.25 4.5 2.25 C4.5 3.24 4.5 4.23 4.5 5.25 C2.52 5.25 0.54 5.25 -1.5 5.25 C-1.5 5.91 -1.5 6.57 -1.5 7.25 C0.48 6.92 2.46 6.59 4.5 6.25 C3.51 7.735 3.51 7.735 2.5 9.25 C0 9.5625 0 9.5625 -2.5 9.25 C-4.5 7.25 -4.5 7.25 -4.75 4.75 C-4.40058445 1.25584452 -3.49415548 0.34941555 0 0 Z " fill="#3E4465" transform="translate(75.5,18.75)"/>
<path d="M0 0 C0.66 0.33 1.32 0.66 2 1 C2 1.66 2 2.32 2 3 C4.31 3.66 6.62 4.32 9 5 C9 5.33 9 5.66 9 6 C7.35 6.33 5.7 6.66 4 7 C4 8.65 4 10.3 4 12 C3.34 12 2.68 12 2 12 C1.34 10.02 0.68 8.04 0 6 C-0.66 6 -1.32 6 -2 6 C-2.33 8.31 -2.66 10.62 -3 13 C-3.33 13 -3.66 13 -4 13 C-4.63019694 4.80743982 -4.63019694 4.80743982 -2 1.4375 C-1.34 0.963125 -0.68 0.48875 0 0 Z " fill="#F9FAF8" transform="translate(35,7)"/>
<path d="M0 0 C3.375 -0.125 3.375 -0.125 7 0 C9 2 9 2 9.125 5.625 C9.08375 6.73875 9.0425 7.8525 9 9 C8.01 9 7.02 9 6 9 C5.87625 8.030625 5.7525 7.06125 5.625 6.0625 C5.315625 4.5465625 5.315625 4.5465625 5 3 C4.34 2.67 3.68 2.34 3 2 C3 4.31 3 6.62 3 9 C2.01 9 1.02 9 0 9 C0 6.03 0 3.06 0 0 Z " fill="#232A50" transform="translate(148,19)"/>
<path d="M0 0 C0.99 0.33 1.98 0.66 3 1 C2.34 1 1.68 1 1 1 C1 1.66 1 2.32 1 3 C1.66 3 2.32 3 3 3 C3 3.66 3 4.32 3 5 C3.66 4.67 4.32 4.34 5 4 C5.33 3.01 5.66 2.02 6 1 C7.65 1.33 9.3 1.66 11 2 C10.38125 2.0825 9.7625 2.165 9.125 2.25 C6.81562433 2.81258459 6.81562433 2.81258459 5.75 5.0625 C5.5025 5.701875 5.255 6.34125 5 7 C4.34 7 3.68 7 3 7 C3 10.3 3 13.6 3 17 C2.34 17 1.68 17 1 17 C0.67 11.39 0.34 5.78 0 0 Z " fill="#717170" transform="translate(28,4)"/>
<path d="M0 0 C2.33294775 -0.04241723 4.66702567 -0.04092937 7 0 C8 1 8 1 8.09765625 2.84765625 C8.04882812 5.92382812 8.04882812 5.92382812 8 9 C7.34 9 6.68 9 6 9 C5.67 7.02 5.34 5.04 5 3 C4.34 3 3.68 3 3 3 C2.67 4.98 2.34 6.96 2 9 C1.34 9 0.68 9 0 9 C0 6.03 0 3.06 0 0 Z " fill="#141A43" transform="translate(160,19)"/>
<path d="M0 0 C0.99 0 1.98 0 3 0 C3 0.66 3 1.32 3 2 C3.66 2 4.32 2 5 2 C5 2.66 5 3.32 5 4 C4.34 4 3.68 4 3 4 C3 5.65 3 7.3 3 9 C3.66 9 4.32 9 5 9 C5 9.66 5 10.32 5 11 C3.35 10.67 1.7 10.34 0 10 C-1.125 2.25 -1.125 2.25 0 0 Z " fill="#232950" transform="translate(193,17)"/>
<path d="M0 0 C0.99 0 1.98 0 3 0 C3 0.66 3 1.32 3 2 C3.66 2 4.32 2 5 2 C5 2.66 5 3.32 5 4 C4.34 4 3.68 4 3 4 C3 5.65 3 7.3 3 9 C3.66 9 4.32 9 5 9 C5 9.66 5 10.32 5 11 C3.68 11 2.36 11 1 11 C0.63743142 9.5437328 0.28520207 8.08488815 -0.0625 6.625 C-0.35833984 5.40683594 -0.35833984 5.40683594 -0.66015625 4.1640625 C-1 2 -1 2 0 0 Z " fill="#282F54" transform="translate(100,17)"/>
<path d="M0 0 C2.5625 0.25 2.5625 0.25 5 1 C5.33 1.66 5.66 2.32 6 3 C4.35 3 2.7 3 1 3 C1 3.99 1 4.98 1 6 C2.65 6 4.3 6 6 6 C6 6.66 6 7.32 6 8 C3.125 8.625 3.125 8.625 0 9 C-2 7 -2 7 -2.25 4.5 C-2 2 -2 2 0 0 Z " fill="#161D45" transform="translate(184,19)"/>
<path d="M0 0 C0.99 0 1.98 0 3 0 C3 3.96 3 7.92 3 12 C2.01 12 1.02 12 0 12 C0 8.04 0 4.08 0 0 Z " fill="#242A50" transform="translate(94,16)"/>
<path d="M0 0 C5.94 0.99 5.94 0.99 12 2 C11.01 3.485 11.01 3.485 10 5 C7.375 5.1875 7.375 5.1875 5 5 C4.67 6.32 4.34 7.64 4 9 C3.34 8.67 2.68 8.34 2 8 C2 6.68 2 5.36 2 4 C2.99 3.67 3.98 3.34 5 3 C2.525 2.01 2.525 2.01 0 1 C0 0.67 0 0.34 0 0 Z " fill="#4C4A4A" transform="translate(36,9)"/>
<path d="M0 0 C2.97 0.495 2.97 0.495 6 1 C5.67 2.65 5.34 4.3 5 6 C4.01 6.33 3.02 6.66 2 7 C0 5 0 5 -0.125 2.375 C-0.08375 1.59125 -0.0425 0.8075 0 0 Z " fill="#A5DD8B" transform="translate(27,32)"/>
<path d="M0 0 C2.97 1.98 2.97 1.98 6 4 C5.67 5.32 5.34 6.64 5 8 C3.35 7.67 1.7 7.34 0 7 C0 4.69 0 2.38 0 0 Z " fill="#E9F5E3" transform="translate(27,21)"/>
<path d="M0 0 C0.33 0.66 0.66 1.32 1 2 C1.99 2.33 2.98 2.66 4 3 C3.01 3 2.02 3 1 3 C1 3.66 1 4.32 1 5 C2.98 4.67 4.96 4.34 7 4 C6.01 5.485 6.01 5.485 5 7 C2.4375 7.25 2.4375 7.25 0 7 C-1 6 -1 6 -1.125 3.5 C-1 1 -1 1 0 0 Z " fill="#181E47" transform="translate(73,21)"/>
<path d="M0 0 C1.98 0.99 1.98 0.99 4 2 C3.67 4.31 3.34 6.62 3 9 C2.01 9 1.02 9 0 9 C0 6.03 0 3.06 0 0 Z " fill="#293055" transform="translate(148,19)"/>
<path d="M0 0 C1.4540625 0.0309375 1.4540625 0.0309375 2.9375 0.0625 C3.5975 1.3825 4.2575 2.7025 4.9375 4.0625 C3.844375 3.85625 2.75125 3.65 1.625 3.4375 C-2.1463401 2.65903475 -2.1463401 2.65903475 -5.0625 5.0625 C-3.9375 0.08035714 -3.9375 0.08035714 0 0 Z " fill="#22284F" transform="translate(129.0625,16.9375)"/>
<path d="M0 0 C0.66 0.99 1.32 1.98 2 3 C-0.91499943 3.79560764 -3.74561419 4.25322499 -6.75 4.5625 C-7.94882813 4.68818359 -7.94882813 4.68818359 -9.171875 4.81640625 C-10.07679687 4.90728516 -10.07679687 4.90728516 -11 5 C-11.33 4.34 -11.66 3.68 -12 3 C-11.30132812 2.86722656 -10.60265625 2.73445312 -9.8828125 2.59765625 C-8.51769531 2.33275391 -8.51769531 2.33275391 -7.125 2.0625 C-6.22007813 1.88847656 -5.31515625 1.71445313 -4.3828125 1.53515625 C-2.00043683 1.10036299 -2.00043683 1.10036299 0 0 Z " fill="#DCDCDC" transform="translate(23,6)"/>
<path d="M0 0 C1.25 2.5625 1.25 2.5625 2 5 C-1 4 -1 4 -3 1 C-5.31 1.66 -7.62 2.32 -10 3 C-10.66 2.34 -11.32 1.68 -12 1 C-3.53000845 -1.39983094 -3.53000845 -1.39983094 0 0 Z " fill="#696869" transform="translate(26,6)"/>
<path d="M0 0 C1.65 0.33 3.3 0.66 5 1 C5 3.64 5 6.28 5 9 C4.34 9 3.68 9 3 9 C2.67 7.02 2.34 5.04 2 3 C1.01 3 0.02 3 -1 3 C-0.67 2.01 -0.34 1.02 0 0 Z " fill="#181F47" transform="translate(111,19)"/>
<path d="M0 0 C1.32 0.66 2.64 1.32 4 2 C4 3.65 4 5.3 4 7 C2.125 6.75 2.125 6.75 0 6 C-1.25 3.9375 -1.25 3.9375 -2 2 C-1.34 1.34 -0.68 0.68 0 0 Z " fill="#86899F" transform="translate(84,19)"/>
<path d="M0 0 C0 0.33 0 0.66 0 1 C-1.65 1.33 -3.3 1.66 -5 2 C-5 3.65 -5 5.3 -5 7 C-5.66 7 -6.32 7 -7 7 C-7.33 4.69 -7.66 2.38 -8 0 C-4.71023192 -1.09658936 -3.28696233 -0.79953138 0 0 Z " fill="#D9D9D9" transform="translate(44,12)"/>
<path d="M0 0 C1.11375 0.556875 1.11375 0.556875 2.25 1.125 C2.25 2.445 2.25 3.765 2.25 5.125 C0.93 4.795 -0.39 4.465 -1.75 4.125 C-1.75 3.465 -1.75 2.805 -1.75 2.125 C-3.4 1.795 -5.05 1.465 -6.75 1.125 C-4.02098495 -0.69434337 -3.21400584 -1.02263822 0 0 Z " fill="#DCDDDC" transform="translate(21.75,11.875)"/>
<path d="M0 0 C1.67542976 0.28604898 3.34385343 0.61781233 5 1 C5 1.99 5 2.98 5 4 C3.35 4.33 1.7 4.66 0 5 C-0.5625 3.0625 -0.5625 3.0625 -1 1 C-0.67 0.67 -0.34 0.34 0 0 Z " fill="#D2D3DB" transform="translate(185,21)"/>
<path d="M0 0 C0.99 0 1.98 0 3 0 C3 1.32 3 2.64 3 4 C3.66 4 4.32 4 5 4 C5 4.66 5 5.32 5 6 C3.35 5.67 1.7 5.34 0 5 C0 3.35 0 1.7 0 0 Z " fill="#343A5D" transform="translate(193,22)"/>
<path d="M0 0 C0.33 0.66 0.66 1.32 1 2 C2.65 1.67 4.3 1.34 6 1 C5.67 1.99 5.34 2.98 5 4 C3.35 4 1.7 4 0 4 C-0.33 3.34 -0.66 2.68 -1 2 C-0.67 1.34 -0.34 0.68 0 0 Z " fill="#252B51" transform="translate(173,24)"/>
<path d="M0 0 C1.65 0 3.3 0 5 0 C4.67 1.32 4.34 2.64 4 4 C2.68 4 1.36 4 0 4 C0 2.68 0 1.36 0 0 Z " fill="#525776" transform="translate(173,19)"/>
</svg>
